<?xml version="1.0" encoding="UTF-8" standalone="no"?>
<!-- Created with Inkscape (http://www.inkscape.org/) -->

<svg
   width="300"
   height="300"
   viewBox="0 0 300 300"
   version="1.1"
   id="svg1"
   xml:space="preserve"
   inkscape:version="1.3.2 (091e20ef0f, 2023-11-25, custom)"
   sodipodi:docname="redmost_icon.svg4"
   xmlns:inkscape="http://www.inkscape.org/namespaces/inkscape"
   xmlns:sodipodi="http://sodipodi.sourceforge.net/DTD/sodipodi-0.dtd"
   xmlns:xlink="http://www.w3.org/1999/xlink"
   xmlns="http://www.w3.org/2000/svg"
   xmlns:svg="http://www.w3.org/2000/svg"><sodipodi:namedview
     id="namedview1"
     pagecolor="#ffffff"
     bordercolor="#999999"
     borderopacity="1"
     inkscape:showpageshadow="0"
     inkscape:pageopacity="0"
     inkscape:pagecheckerboard="0"
     inkscape:deskcolor="#d1d1d1"
     inkscape:document-units="px"
     inkscape:zoom="1.3366667"
     inkscape:cx="62.094762"
     inkscape:cy="172.81795"
     inkscape:window-width="1920"
     inkscape:window-height="1006"
     inkscape:window-x="0"
     inkscape:window-y="0"
     inkscape:window-maximized="1"
     inkscape:current-layer="layer1"
     showguides="true" /><defs
     id="defs1"><inkscape:path-effect
       effect="perspective-envelope"
       up_left_point="31.341301,12.210425"
       up_right_point="273.1347,53.315965"
       down_left_point="25.549082,247.02989"
       down_right_point="285.46512,186.19403"
       id="path-effect8"
       is_visible="true"
       lpeversion="1"
       deform_type="perspective"
       horizontal_mirror="false"
       vertical_mirror="false"
       overflow_perspective="false" /><inkscape:path-effect
       effect="perspective-envelope"
       up_left_point="31.341301,12.210425"
       up_right_point="273.1347,53.315965"
       down_left_point="25.549082,247.02989"
       down_right_point="285.46512,186.19403"
       id="path-effect5"
       is_visible="true"
       lpeversion="1"
       deform_type="perspective"
       horizontal_mirror="false"
       vertical_mirror="false"
       overflow_perspective="false" /><inkscape:path-effect
       effect="envelope"
       id="path-effect4"
       is_visible="true"
       lpeversion="1"
       yy="true"
       xx="true"
       bendpath1="M 26.933594,33.341797 H 275.45117"
       bendpath2="M 275.45117,33.341797 V 164.0625"
       bendpath3="M 26.933594,164.0625 H 275.45117"
       bendpath4="M 26.933594,33.341797 V 164.0625" /><inkscape:path-effect
       effect="perspective-envelope"
       up_left_point="24.515481,51.432309"
       up_right_point="272.56596,51.432309"
       down_left_point="24.515481,181.23138"
       down_right_point="272.56596,181.23138"
       id="path-effect2"
       is_visible="true"
       lpeversion="1"
       deform_type="perspective"
       horizontal_mirror="false"
       vertical_mirror="false"
       overflow_perspective="false" /><linearGradient
       id="linearGradient3"><stop
         style="stop-color:#ec0000;stop-opacity:1;"
         offset="0"
         id="stop13" /><stop
         style="stop-color:#f2af00;stop-opacity:1;"
         offset="1"
         id="stop14" /></linearGradient><linearGradient
       id="linearGradient3-1"><stop
         style="stop-color:#ec0000;stop-opacity:1;"
         offset="0"
         id="stop3" /><stop
         style="stop-color:#f2af00;stop-opacity:1;"
         offset="1"
         id="stop4" /></linearGradient><linearGradient
       inkscape:collect="always"
       xlink:href="#linearGradient3-1"
       id="linearGradient19"
       gradientUnits="userSpaceOnUse"
       x1="-125.95338"
       y1="193.88341"
       x2="103.14753"
       y2="376.2507"
       gradientTransform="matrix(0.63201945,0,0,0.62761113,157.14406,-74.886598)" /><clipPath
       clipPathUnits="userSpaceOnUse"
       id="clipPath77"><path
         style="fill:#000000;stroke:#000000;stroke-width:0.516;stroke-dasharray:none;stroke-opacity:1"
         d="m 43.088528,172.04265 c -0.08775,-0.1503 -0.250858,-0.87764 -0.362443,-1.61633 -0.111584,-0.73868 -0.319957,-1.34305 -0.463047,-1.34305 -0.362968,0 -1.317238,-2.07319 -1.97155,-4.28329 -0.714856,-2.41461 -0.875845,-2.35005 -1.553095,0.62279 -0.617077,2.70871 -1.064013,3.20989 -1.619834,1.81641 -0.198244,-0.49703 -0.590424,-1.39663 -0.871505,-1.99913 l -0.51105,-1.09543 -0.308432,1.90361 c -0.342384,2.11311 -0.107012,1.9976 -3.283896,1.61161 -1.068294,-0.1298 -1.159499,-0.0719 -1.393681,0.88472 -0.362769,1.48193 -1.0397,1.27862 -1.435343,-0.43109 l -0.336627,-1.45471 -0.781869,0.88899 c -0.898218,1.02126 -1.328211,1.10983 -1.726932,0.35565 -0.24257,-0.45882 -0.340708,-0.40737 -0.702307,0.36816 -0.231199,0.49583 -0.542409,0.86887 -0.691593,0.829 -0.149185,-0.0398 -0.387581,0.12176 -0.52976,0.35918 -0.177619,0.29661 -0.259978,0.15352 -0.263188,-0.45729 -0.0026,-0.53496 0.160157,-0.88898 0.409235,-0.88898 0.227648,0 0.538912,-0.46139 0.691706,-1.02529 0.35601,-1.31401 0.927577,-1.5109 1.374174,-0.47338 l 0.350804,0.815 0.908421,-0.96159 c 1.059041,-1.12102 1.758045,-0.83672 1.758045,0.71504 0,0.51162 0.137434,0.93022 0.305402,0.93022 0.167961,0 0.305394,-0.28236 0.305394,-0.62746 0,-0.97887 2.146311,-1.7588 2.6178,-0.95126 0.359891,0.6164 1.64343,0.29919 1.787244,-0.4417 0.543512,-2.80002 0.685026,-3.27765 1.004485,-3.39036 0.206207,-0.0728 0.504961,0.4482 0.702627,1.22522 0.660819,2.59774 1.343319,2.86201 1.768181,0.68463 0.622628,-3.19087 1.8243,-3.88964 2.305871,-1.34084 0.100026,0.5294 0.460156,1.60918 0.800286,2.39952 0.340137,0.79034 0.61842,1.5581 0.61842,1.70614 0,0.14803 0.274854,0.51827 0.61079,0.82274 0.335929,0.30446 0.610783,0.94292 0.610783,1.41878 0,1.90841 0.392526,0.26507 0.780858,-3.26915 0.516991,-4.70507 0.918796,-5.52718 1.636418,-3.34813 0.388637,1.18008 0.700187,0.98123 1.234227,-0.78777 0.201454,-0.66729 0.565559,-1.21225 0.809964,-1.21225 0.244185,0 0.524662,-0.22253 0.623265,-0.49454 0.104692,-0.28877 0.395065,-0.42203 0.697927,-0.32028 0.444105,0.14921 0.569787,-0.23027 0.87435,-2.63978 0.463819,-3.66943 1.018411,-4.34472 1.72329,-2.09832 0.800765,2.55198 1.272919,2.708 1.694217,0.55981 0.219062,-1.11697 0.509296,-1.79551 0.767997,-1.79551 0.426877,0 0.563665,0.32887 0.925503,2.2251 0.135718,0.71125 0.291929,0.95109 0.446743,0.68594 0.374753,-0.64186 0.874144,-0.0891 1.104066,1.22196 0.115832,0.66051 0.382802,1.49186 0.593268,1.84745 0.210468,0.3556 0.474075,1.24854 0.585792,1.98433 0.273205,1.7993 1.22027,1.6441 1.505917,-0.2468 0.106134,-0.70256 0.395152,-1.35949 0.642261,-1.45986 0.502935,-0.2043 0.846807,-1.42792 1.377524,-4.90174 0.529561,-3.46621 1.213517,-3.16489 1.826938,0.80487 0.52869,3.42146 0.756505,3.87453 1.031817,2.05206 0.229177,-1.5171 0.970347,-1.76834 1.224025,-0.41491 0.09164,0.48894 0.455575,3.04903 0.808733,5.68908 0.861389,6.43926 1.031644,6.83098 1.492166,3.43311 0.548968,-4.05043 0.619723,-4.27197 1.303857,-4.0826 0.354541,0.0981 0.660115,-0.0301 0.765671,-0.32125 0.09662,-0.26652 0.502954,-0.61629 0.902978,-0.77728 0.966226,-0.38886 1.16354,-1.04455 1.732807,-5.7583 0.289775,-2.39953 0.661384,-4.20987 0.928993,-4.52574 0.245309,-0.28955 0.536872,-1.04504 0.647924,-1.67885 0.658985,-3.761 1.429114,-2.26245 1.838224,3.5769 0.09343,1.33348 0.226785,3.07912 0.296342,3.87921 0.06957,0.80009 0.228207,3.41855 0.352533,5.81881 0.257897,4.97898 0.516533,4.34909 0.862792,-2.10123 0.114528,-2.13357 0.332732,-5.62486 0.484881,-7.75843 0.152149,-2.13356 0.279758,-3.9883 0.283567,-4.12165 0.129165,-4.51929 1.181088,1.30617 1.524694,8.44363 0.299659,6.22462 0.613687,8.08833 0.628948,3.73277 0.0053,-1.40756 0.07384,-3.72296 0.15314,-5.14533 0.07929,-1.42239 0.282018,-5.27734 0.450491,-8.5666 0.358289,-6.99507 0.897634,-10.69417 2.144596,-14.70867 0.497045,-1.60017 0.975898,-3.30944 1.064126,-3.79839 0.350094,-1.94007 1.447918,-0.84981 1.81104,1.79856 0.172188,1.25581 0.292825,1.48629 0.625165,1.19432 0.313318,-0.27524 0.480642,-0.23158 0.699596,0.18257 0.195499,0.36978 0.356083,0.42736 0.500761,0.17956 0.331682,-0.56808 0.659649,-0.43456 1.026606,0.41796 0.57021,1.32473 1.52557,0.75026 1.761215,-1.05904 0.52665,-4.04372 1.34867,-4.74735 1.754337,-1.50168 0.133338,1.06679 0.325533,2.44875 0.427095,3.07104 l 0.184671,1.13144 0.267948,-1.27686 c 0.484941,-2.3109 1.60115,-3.07751 2.132352,-1.46452 0.198649,0.60319 0.503652,0.94288 0.798226,0.88899 0.313869,-0.0575 0.568948,0.28068 0.74666,0.98967 0.238816,0.95275 0.329782,1.02772 0.789207,0.65039 1.338607,-1.09941 9.436047,-8.51796 9.901557,-9.0714 0.74967,-0.89126 1.05094,-0.52201 1.30693,1.60185 0.18816,1.56118 0.26811,1.74082 0.49339,1.10864 0.73402,-2.05973 1.8586,2.11103 2.2518,8.35121 0.26164,4.15259 0.75296,5.03626 0.79983,1.43855 0.0184,-1.4135 0.0687,-3.00639 0.11166,-3.53979 0.043,-0.53339 0.17349,-3.51553 0.28997,-6.62698 0.23319,-6.22941 0.3338,-6.9829 0.96671,-7.23998 0.2368,-0.0962 0.43054,-0.53453 0.43054,-0.97412 0,-1.68666 0.81229,-1.30046 1.23904,0.58909 l 0.2254,0.99803 0.0313,-0.94701 c 0.0172,-0.52086 0.2986,-1.8301 0.62537,-2.90942 0.32676,-1.07931 0.67875,-2.65337 0.78219,-3.49791 0.21955,-1.79245 0.91446,-2.0827 1.16092,-0.4849 0.0891,0.57784 0.40456,2.7599 0.70094,4.84901 0.60878,4.29118 0.88103,4.69656 1.19406,1.77798 0.21674,-2.02081 0.60379,-2.96859 1.08401,-2.65442 0.14045,0.0919 0.32611,-0.30976 0.41259,-0.89254 0.9111,-6.14049 1.18767,-6.93449 2.28678,-6.56523 0.42861,0.14399 0.5751,-0.18909 0.86146,-1.95865 0.54279,-3.35428 1.10894,-3.24247 1.58461,0.31297 0.40471,3.02503 0.47434,2.95151 0.90317,-0.95354 0.45567,-4.14937 0.76108,-5.13713 1.49493,-4.83476 1.03144,0.42496 1.11917,0.31124 1.36469,-1.76907 0.628,-5.321173 0.69447,-5.65717 1.11922,-5.65717 0.57921,0 1.4271,3.402946 1.8479,7.41656 0.41357,3.9446 0.52491,4.1077 0.79843,1.16951 0.15675,-1.68393 0.36452,-2.41695 0.77032,-2.71783 0.41392,-0.30688 0.64836,-1.176936 0.91895,-3.410313 0.48143,-3.973709 1.84054,-4.403788 2.68593,-0.849937 0.22651,0.952237 0.48429,1.383296 0.79809,1.334547 0.81722,-0.126965 1.02906,-0.623327 1.50876,-3.535128 0.82216,-4.99058 2.34977,-4.438345 3.16746,1.145043 0.39168,2.674497 0.79707,3.613822 1.10968,2.571239 0.46351,-1.545872 1.14601,-0.831757 1.5579,1.630073 l 0.2004,1.197826 0.75582,-1.521093 c 1.24952,-2.514699 1.51998,-2.664153 2.1309,-1.177505 l 0.52301,1.272747 0.25691,-1.293073 c 0.1413,-0.711191 0.42502,-2.227364 0.6305,-3.369294 0.42305,-2.351086 0.97338,-2.849864 1.38937,-1.259225 0.33512,1.281452 0.46127,0.994377 1.0194,-2.319624 0.53951,-3.203526 1.25513,-3.502677 1.78911,-0.747905 0.49802,2.569303 0.66552,3.016756 0.82377,2.200501 0.39619,-2.04375 0.75514,-2.775257 1.17907,-2.402838 0.47677,0.418842 0.49116,0.392806 1.0409,-1.880452 0.32056,-1.325585 0.94835,-1.785768 1.39428,-1.022026 0.12586,0.215574 0.33985,0.06895 0.55245,-0.378558 0.52758,-1.110471 0.98744,-1.079203 1.40193,0.09533 0.82173,2.328545 0.96617,2.588007 1.52717,2.743298 0.81186,0.224737 1.513,3.898791 1.86932,9.795494 0.063,1.042473 0.60991,-1.632931 1.04791,-5.126179 0.50106,-3.996153 0.58832,-4.29852 1.17207,-4.061398 0.28453,0.115568 0.48802,-0.606338 0.7458,-2.645766 0.42002,-3.322893 1.59191,-4.191699 1.59191,-1.180196 0,0.419865 0.23124,1.810396 0.51387,3.090072 l 0.51388,2.326688 0.3485,-2.161121 c 0.19167,-1.188619 0.5404,-2.405909 0.77498,-2.705084 0.23455,-0.29918 0.57564,-1.508728 0.75794,-2.687889 0.48566,-3.141362 1.07529,-2.893849 1.74418,0.732162 0.38213,2.071452 0.69998,3.001714 1.13616,3.325101 0.40078,0.297152 0.67362,0.991743 0.8067,2.053738 0.20716,1.652938 0.36705,1.863016 0.94909,1.2469 0.48215,-0.51037 1.10303,0.678365 1.76888,3.386668 0.59999,2.440473 0.80035,2.374749 1.34956,-0.442702 0.46329,-2.376672 0.81342,-2.940172 1.35892,-2.187081 0.48304,0.666875 0.80383,0.424233 0.80383,-0.608027 0,-3.117923 1.57675,-4.060027 2.22017,-1.326552 0.26157,1.11123 0.645,2.456839 0.85204,2.990227 l 0.37648,0.9698 0.3644,-1.293067 c 0.48918,-1.735862 1.27487,-1.883785 1.55677,-0.293103 l 0.21302,1.201909 0.43483,-0.87849 c 0.56212,-1.135619 1.08686,-0.930714 1.44271,0.56337 0.21952,0.92166 0.40364,1.150831 0.81386,1.013006 0.32903,-0.110534 0.69944,0.07767 0.97628,0.49605 0.37395,0.565147 0.47538,0.593403 0.62715,0.174691 0.70568,-1.946578 1.28,-0.161445 1.55536,4.834446 0.0784,1.42237 0.24523,4.25905 0.37074,6.30371 l 0.22819,3.71758 0.38905,-2.4245 c 0.51005,-3.17864 0.91923,-6.62801 1.18877,-10.021296 0.41471,-5.220746 0.55226,-5.963957 1.12538,-6.080658 0.34361,-0.07 0.53443,0.09201 0.53443,0.453656 0,1.23208 0.25586,0.174401 0.43741,-1.808144 0.42918,-4.686865 0.61124,-5.40336 1.23396,-4.856299 0.43062,0.378298 0.55691,-0.10655 0.94197,-3.616398 0.32311,-2.945261 1.66216,-3.582752 1.66216,-0.791315 0,0.215559 0.2017,0.696752 0.44822,1.069319 0.26137,0.394996 0.60659,2.278031 0.82808,4.51686 0.42417,4.287492 0.56188,3.936188 0.98811,-2.520625 0.29322,-4.441898 0.79901,-10.067658 0.94677,-10.530635 0.27949,-0.87573 1.06416,-0.410549 1.09055,0.646532 0.0392,1.565521 0.43572,0.04048 0.71985,-2.768086 0.39966,-3.950386 1.18582,-2.970594 1.68447,2.099343 0.18043,1.834635 0.41071,3.907037 0.51172,4.60534 l 0.18365,1.269638 0.45464,-1.269638 c 0.25006,-0.698303 0.72695,-2.433402 1.05976,-3.855781 0.81818,-3.496697 0.77938,-3.394308 1.28653,-3.394308 0.29798,0 0.51827,0.489213 0.65505,1.454706 0.21394,1.510161 0.74752,2.01576 0.74752,0.708319 0,-3.022814 1.26599,-1.910878 1.81791,1.59668 0.80768,5.133015 1.29361,5.80819 1.72171,2.392214 0.38888,-3.103223 1.59246,-3.398781 1.68555,-0.41392 0.0236,0.755635 0.0772,1.519358 0.1192,1.697154 0.042,0.177799 0.0935,1.059204 0.11452,1.958682 0.0516,2.208015 0.47593,1.802769 0.58021,-0.554041 0.16505,-3.730519 0.88574,-4.907987 1.33895,-2.18762 0.11618,0.697334 0.3078,1.849763 0.42582,2.560948 0.11803,0.71119 0.28415,1.074867 0.36917,0.808169 0.30906,-0.969546 0.74075,-1.321801 1.1641,-0.949887 0.31346,0.275374 0.47178,0.04953 0.73366,-1.046636 0.62267,-2.606241 1.09174,-3.659779 1.77195,-3.979762 0.37309,-0.175511 0.67835,-0.475017 0.67835,-0.665565 0,-0.675531 0.83504,-1.541557 1.53938,-1.596482 0.55888,-0.0436 0.81807,-0.379419 1.1908,-1.543008 0.26204,-0.818019 0.59163,-1.606691 0.73242,-1.752614 0.14078,-0.145917 0.45895,-0.774452 0.70705,-1.396744 0.46144,-1.157451 1.32741,-0.780619 1.32741,0.577624 0,0.539102 0.91927,2.355598 1.42499,2.815855 0.2796,0.254451 1.32354,3.86045 1.32354,4.571762 0,0.971631 0.63679,-0.716316 0.90483,-2.39845 0.49741,-3.121591 1.8437,-4.03613 1.8437,-1.252425 0,0.607008 0.0259,0.610054 0.59026,0.06942 0.564,-0.540294 0.60758,-0.536024 0.98046,0.096 0.37914,0.642621 0.40101,0.634299 0.76929,-0.292843 0.45222,-1.138474 0.94378,-1.224592 1.2952,-0.226909 0.21551,0.611813 0.31505,0.428821 0.62664,-1.152022 0.37518,-1.903516 0.91511,-2.52186 1.6434,-1.882062 0.29024,0.254975 0.4992,0.247139 0.75959,-0.02847 0.52282,-0.553416 0.93874,0.0244 1.23221,1.711866 l 0.24897,1.43152 0.48851,-1.777969 c 0.26868,-0.977883 0.64069,-2.578058 0.8267,-3.555945 0.56939,-2.993579 1.72914,-3.732038 2.27114,-1.446137 0.22913,0.966358 1.28493,0.962007 2.07944,-0.0086 0.68478,-0.836537 1.06094,-0.312875 1.34045,1.866044 0.26483,2.064647 0.58205,2.161564 1.0212,0.311995 0.35984,-1.515594 1.05737,-2.662939 1.61892,-2.662939 0.15967,0 0.68447,-0.351061 1.16619,-0.780131 1.63743,-1.458457 2.77731,-0.339397 3.18663,3.128427 0.24323,2.060722 0.59274,2.600486 0.8852,1.367043 0.27499,-1.15983 1.03562,-1.00914 1.23511,0.244685 0.41629,2.616729 0.76565,6.946142 0.93257,11.556812 0.0998,2.755857 0.23859,5.308596 0.30851,5.672756 0.0699,0.364163 0.14731,2.002499 0.17201,3.640751 0.0247,1.638254 0.13702,3.038895 0.24961,3.112555 0.11258,0.07364 0.21115,-0.10999 0.21904,-0.408084 0.20266,-7.650493 0.9243,-17.849092 1.47943,-20.907831 0.25814,-1.42238 0.46937,-2.622508 0.46941,-2.666959 1.9e-4,-0.308156 0.96711,0.0067 1.0938,0.356162 0.59836,1.650565 2.0759,-0.357879 2.86,-3.887639 0.60264,-2.712888 1.9052,-2.251989 1.81753,0.643113 l -0.0312,1.029578 -0.31838,-1.050622 c -0.42419,-1.399681 -0.72135,-1.324828 -0.95794,0.24128 -0.28317,1.874528 -1.42648,4.203649 -2.06347,4.203649 -0.29256,0 -0.62098,0.152534 -0.72982,0.338964 -0.13489,0.231042 -0.33746,0.216373 -0.63619,-0.04606 -0.60907,-0.535069 -0.64769,-0.446762 -1.15006,2.63006 -0.48671,2.980865 -0.80378,7.268087 -1.28766,17.411344 -0.10519,2.205115 -0.23422,4.241705 -0.28673,4.525754 -0.0525,0.284036 -0.10599,0.62554 -0.11884,0.758888 -0.30841,3.200022 -0.90169,-1.062111 -1.24874,-8.970671 -0.61992,-14.127556 -1.08619,-18.700773 -1.73619,-17.028919 -0.64305,1.653985 -1.11185,1.082064 -1.69582,-2.068855 -0.61042,-3.293654 -1.15883,-4.069414 -2.19502,-3.104988 -0.34634,0.322362 -1.00225,0.830787 -1.45756,1.12983 -0.54823,0.360069 -0.94118,1.008062 -1.1634,1.918469 -0.59107,2.42156 -0.64849,2.544662 -1.13982,2.443753 -0.50756,-0.104238 -0.81153,-0.894097 -1.13885,-2.959287 -0.19121,-1.206433 -0.21487,-1.226752 -0.78849,-0.677251 -0.32526,0.311574 -0.59137,0.453411 -0.59137,0.315182 0,-0.138224 -0.20011,-0.07551 -0.44471,0.139364 -0.57584,0.505883 -1.04463,0.179265 -1.54678,-1.077676 l -0.40422,-1.011811 -0.35215,0.969801 c -0.19369,0.533394 -0.48629,1.769892 -0.65022,2.747775 -0.40505,2.416203 -1.16882,4.849014 -1.52232,4.849014 -0.32119,0 -0.38495,-0.158795 -0.90843,-2.262875 -0.19905,-0.800088 -0.42343,-1.272863 -0.49862,-1.050617 -0.19561,0.578262 -0.92162,0.498647 -1.2582,-0.137983 -0.22162,-0.419198 -0.37411,-0.107799 -0.67279,1.37389 -0.49055,2.43362 -0.99377,3.10677 -1.52986,2.046455 l -0.38076,-0.753088 -0.25,0.715375 c -0.29393,0.841105 -1.12117,0.946663 -1.39962,0.178599 -0.1647,-0.454348 -0.23352,-0.425373 -0.44812,0.188709 -0.34296,0.981378 -0.94248,0.69847 -1.36899,-0.646017 -0.33882,-1.068052 -0.35708,-1.078611 -0.51696,-0.298985 -0.0911,0.444492 -0.32309,1.564684 -0.51542,2.48931 -0.64618,3.106227 -1.75445,2.524593 -2.31974,-1.217422 -0.10103,-0.668786 -0.64901,-1.908774 -1.21775,-2.755535 -0.56873,-0.846761 -1.03458,-1.841265 -1.03522,-2.210016 -0.002,-0.962732 -0.95974,0.756455 -1.65318,2.966409 -0.59169,1.88566 -0.92233,2.250481 -1.54438,1.704016 -0.33391,-0.29335 -0.50055,-0.21383 -0.78838,0.37625 -0.20074,0.411528 -0.73852,1.119265 -1.19506,1.572757 -0.59548,0.591507 -0.98408,1.505106 -1.375,3.232675 -0.63228,2.794208 -0.94494,3.303803 -1.52076,2.478643 -0.37382,-0.535679 -0.41557,-0.518693 -0.59605,0.242452 -0.4452,1.877635 -1.70939,0.395408 -1.70939,-2.004211 0,-2.045178 -0.34443,-0.885273 -0.59245,1.995123 -0.13195,1.532414 -0.31834,2.869231 -0.4142,2.970702 -0.47182,0.499427 -0.77082,-0.451339 -0.95207,-3.027311 -0.10965,-1.558367 -0.28809,-3.415276 -0.39653,-4.126466 l -0.19715,-1.293069 -0.48081,2.236285 c -0.81117,3.772922 -1.68892,2.910642 -2.58812,-2.542482 -0.56065,-3.400058 -0.6642,-3.579295 -1.00721,-1.743321 -0.37921,2.029733 -1.07483,1.854685 -1.49017,-0.374989 l -0.33118,-1.777965 -0.22572,1.131439 c -0.56357,2.825096 -2.17173,7.75842 -2.52908,7.75842 -0.48143,0 -0.5939,-0.552646 -1.01987,-5.010646 -0.47644,-4.985993 -0.65485,-5.316128 -1.08236,-2.002793 -0.20198,1.565418 -0.44221,2.92559 -0.53386,3.022592 -0.34299,0.363076 -0.81836,-0.280288 -0.82732,-1.119695 -0.0253,-2.362001 -0.58129,0.536931 -0.88776,4.628016 -0.79105,10.560244 -0.94084,11.796886 -1.42899,11.796886 -0.23237,0 -0.42543,-0.181836 -0.42901,-0.404086 -0.0285,-1.765765 -0.90768,-8.417392 -1.15454,-8.733833 -0.17098,-0.219158 -0.43684,-0.907616 -0.59079,-1.529908 -0.26352,-1.065097 -0.30254,-0.970331 -0.66556,1.616337 -0.51126,3.642847 -0.5858,3.879213 -1.22341,3.879213 -0.46921,0 -0.59174,0.481733 -0.87402,3.436125 -0.34499,3.610674 -0.75202,4.699198 -1.24387,3.326472 -0.37543,-1.047784 -0.5125,-0.210252 -1.11531,6.814635 -0.25173,2.93366 -0.59419,6.06127 -0.761,6.95025 -0.16682,0.88898 -0.41115,2.27096 -0.54296,3.07104 -0.58045,3.52331 -0.99365,1.34206 -1.59084,-8.39774 -0.37324,-6.087223 -0.37811,-6.112896 -1.04817,-5.524252 -0.3636,0.319422 -0.52196,0.269186 -0.83751,-0.265653 -0.27232,-0.461584 -0.59255,-0.605517 -1.06681,-0.47951 -0.58271,0.154807 -0.70653,0.01727 -0.88353,-0.981356 -0.23546,-1.32862 -0.44143,-1.433067 -0.99055,-0.502317 -0.48727,0.82591 -0.89394,0.576848 -1.23406,-0.755812 l -0.26408,-1.034705 -0.40359,1.386981 c -0.66634,2.28999 -2.64956,-0.469303 -2.73947,-3.811487 -0.0324,-1.203094 -0.52068,-0.177419 -1.01711,2.136358 -0.4354,2.029292 -0.96912,2.551232 -1.39668,1.365849 l -0.27211,-0.754434 -0.17819,0.808174 c -0.098,0.444493 -0.3533,1.606728 -0.56733,2.582759 -0.55699,2.539974 -1.27291,2.579024 -1.9248,0.104999 -1.07891,-4.094688 -1.07404,-4.083713 -1.52731,-3.434053 -0.55752,0.799034 -0.88365,0.331762 -1.33806,-1.917133 -0.20618,-1.020391 -0.58628,-1.980489 -0.84466,-2.133547 -0.48695,-0.288465 -1.32026,-3.154272 -1.32026,-4.540476 0,-1.266034 -0.37267,-0.520906 -0.64222,1.28409 -0.13618,0.911877 -0.44694,1.824061 -0.69055,2.02707 -0.24362,0.20301 -0.60553,1.423766 -0.80426,2.712797 -0.57246,3.713424 -1.54764,2.589071 -2.31313,-2.666955 l -0.23539,-1.616338 -0.24302,1.29307 c -0.13365,0.711185 -0.35504,2.020422 -0.49196,2.90941 -0.19585,1.271499 -0.36088,1.596065 -0.77354,1.521345 -0.36422,-0.06594 -0.53225,0.131688 -0.54969,0.646533 -0.0777,2.294728 -0.96504,7.675303 -1.36007,8.247153 -0.61585,0.89152 -0.75522,0.45391 -1.22088,-3.833144 -0.66655,-6.136472 -0.68268,-6.203945 -1.62031,-6.77356 -0.55529,-0.33734 -0.97631,-0.991151 -1.24721,-1.936764 -0.38692,-1.350567 -0.42624,-1.387207 -0.72956,-0.67979 -0.2373,0.553421 -0.4935,0.701784 -0.98597,0.570941 -0.58581,-0.15563 -0.71657,0.02553 -1.09353,1.515156 -0.32607,1.288554 -0.56684,1.692264 -1.00988,1.693315 -0.43632,7.26e-4 -0.66444,0.364638 -0.91262,1.454707 -0.51818,2.275866 -1.16362,1.918613 -1.67392,-0.926513 -0.4841,-2.699085 -0.71202,-2.556525 -1.23408,0.771917 -0.45791,2.919454 -1.5457,4.392275 -1.5457,2.092811 0,-1.750843 -0.56609,-0.585365 -0.90866,1.870778 -0.64628,4.633656 -1.22247,5.331646 -1.99508,2.416817 l -0.31305,-1.181089 -1.00657,2.164318 c -1.24091,2.66815 -1.45148,2.6856 -1.92103,0.15922 -0.32145,-1.729504 -0.41393,-1.907242 -0.67282,-1.29307 -0.63812,1.51378 -1.53776,0.226399 -1.98737,-2.843901 -0.75022,-5.123357 -1.59023,-5.442931 -2.20699,-0.839657 -0.34034,2.54014 -0.63236,3.014434 -1.94747,3.162966 -0.82322,0.09297 -0.9286,-0.01596 -1.29728,-1.341307 -0.74926,-2.693366 -1.18244,-2.636587 -1.59266,0.208793 -0.56493,3.918386 -0.66274,4.304746 -1.0899,4.304746 -0.24513,0 -0.4746,0.59249 -0.59469,1.53552 -0.45136,3.54426 -0.55098,3.96002 -0.94895,3.96002 -0.52069,0 -0.66231,-0.55652 -0.90492,-3.55594 -0.26102,-3.22724 -1.21997,-7.804726 -1.45602,-6.950241 -0.0982,0.355592 -0.26259,1.519358 -0.36524,2.586133 -0.43351,4.505118 -0.41632,4.458648 -1.57575,4.259488 -0.70699,-0.12144 -1.03618,-0.0518 -1.03618,0.21919 0,0.78815 -0.93902,8.14025 -1.10015,8.61365 -0.33066,0.97152 -0.97418,-0.63151 -1.19721,-2.98228 -0.23328,-2.45892 -0.54094,-2.40579 -0.88997,0.1537 -0.20677,1.51613 -0.6244,1.89712 -1.29801,1.18408 -0.48569,-0.51413 -0.61924,-0.11622 -1.15533,3.44249 -0.60165,3.99389 -0.72866,4.43111 -1.22822,4.22819 -0.40606,-0.16495 -0.51688,0.23721 -0.9303,3.37591 -0.50524,3.83585 -1.07464,2.92089 -1.99968,-3.21331 l -0.71389,-4.73407 -0.35442,1.9396 c -0.19493,1.06678 -0.46459,2.21965 -0.59926,2.56192 -0.13467,0.34227 -0.39833,1.43331 -0.58591,2.42451 -0.39455,2.08489 -0.71729,2.25695 -1.25809,0.67075 -0.30538,-0.89569 -0.39059,-0.97777 -0.40899,-0.39394 -0.0128,0.40563 -0.21432,0.81513 -0.44787,0.90998 -0.50787,0.20631 -0.71144,2.1604 -0.97411,9.35051 -0.31192,8.53844 -0.55582,11.56822 -0.94213,11.70343 -0.48175,0.16861 -0.63495,-0.53548 -0.85986,-3.9519 -0.33919,-5.1524 -1.68555,-12.56318 -1.68555,-9.27777 0,1.62046 -0.87359,0.69942 -1.08849,-1.1476 -0.39884,-3.42801 -0.049,-3.54246 -6.10076,1.99605 -5.913425,5.41192 -5.94263,5.43268 -5.94263,4.22685 0,-0.57744 -0.165051,-0.80817 -0.578121,-0.80817 -0.382956,0 -0.732889,-0.40924 -1.036576,-1.21225 l -0.458454,-1.21225 -0.511295,1.93959 c -0.724986,2.75027 -0.724029,2.74778 -1.056842,2.74778 -0.363659,0 -0.859568,-2.77134 -0.914489,-5.11055 -0.03835,-1.63271 -0.566636,-0.9227 -0.802911,1.07908 -0.224785,1.9044 -0.412759,2.15837 -1.708781,2.30855 -0.62732,0.0727 -0.885483,-0.0732 -1.039726,-0.5876 -0.153771,-0.51287 -0.267489,-0.57759 -0.453908,-0.2583 -0.190826,0.32683 -0.348266,0.33856 -0.676286,0.0504 -0.307016,-0.26971 -0.520839,-0.27685 -0.758465,-0.0253 -0.435018,0.46048 -0.85532,-0.38152 -1.150739,-2.30527 -0.345128,-2.24751 -0.53267,-2.24544 -1.095126,0.0121 -0.286272,1.14903 -0.747179,2.72814 -1.024226,3.50913 -0.608124,1.71429 -1.598718,8.47158 -1.829596,12.48052 -0.163296,2.83542 -0.272567,5.24239 -0.66042,14.54703 -0.170162,4.08204 -0.416196,5.45612 -0.887598,4.95714 -0.0894,-0.0946 -0.294454,-2.55793 -0.455696,-5.47401 -0.458121,-8.28559 -0.6138,-10.42064 -0.772024,-10.58813 -0.08078,-0.0855 -0.164426,0.48702 -0.185861,1.27229 -0.02141,0.78526 -0.07097,1.7187 -0.110076,2.07429 -0.03915,0.3556 -0.165741,2.31945 -0.281413,4.36411 -0.798964,14.12298 -1.457822,14.97428 -2.12663,2.74778 -0.181448,-3.31702 -0.350845,-5.49403 -0.641418,-8.24333 -0.0658,-0.62228 -0.128858,-1.6128 -0.140198,-2.20113 -0.02141,-1.10875 -0.631394,-1.17227 -0.631394,-0.0657 0,0.3324 -0.223721,0.84118 -0.497151,1.13062 -0.342676,0.36273 -0.675415,1.94484 -1.070799,5.09135 -0.561697,4.47008 -0.992209,5.74294 -1.942378,5.74294 -0.198955,0 -0.522336,0.3731 -0.718618,0.82912 -0.268626,0.62408 -0.507328,0.77859 -0.965197,0.62475 -0.334574,-0.1124 -0.609354,-0.0855 -0.610624,0.0599 -0.0026,0.26784 -0.469421,3.59414 -0.774749,5.51733 -0.578972,3.6468 -1.503325,0.32842 -2.768978,-9.94047 l -0.219141,-1.77797 -0.346112,1.45469 c -0.58655,2.46522 -1.16025,1.89704 -1.759514,-1.74255 -0.63527,-3.85826 -0.714198,-3.98507 -0.986958,-1.58572 -0.317286,2.79093 -0.810462,4.65521 -1.28219,4.84683 -0.23074,0.0937 -0.571355,0.80869 -0.75693,1.5888 -0.185576,0.78012 -0.47773,1.4184 -0.649227,1.4184 -0.171505,0 -0.496141,0.25457 -0.721424,0.56572 -0.553881,0.76497 -0.898909,0.18666 -1.132102,-1.89757 -0.09774,-0.87352 -0.390053,-1.90913 -0.649586,-2.30135 -0.259532,-0.39223 -0.47188,-1.06226 -0.47188,-1.48896 0,-0.66964 -0.06587,-0.71795 -0.481366,-0.35294 -0.583744,0.51282 -1.020789,-0.0275 -1.062384,-1.31352 -0.05942,-1.83711 -0.510006,-2.16261 -0.747505,-0.54001 -0.344165,2.35131 -1.951802,2.25755 -2.449871,-0.14287 -0.270367,-1.30304 -0.648569,-0.90777 -0.881575,0.92136 -0.507833,3.98665 -0.520175,4.02971 -1.107681,3.86708 -0.309902,-0.0858 -0.632252,0.0456 -0.722427,0.29427 -0.08956,0.24705 -0.34249,0.44918 -0.562063,0.44918 -0.21958,0 -0.67053,0.61216 -1.002113,1.36034 -0.743184,1.6769 -1.253263,1.88025 -1.721774,0.68636 -0.32251,-0.82185 -0.41333,-0.46984 -0.88981,3.44885 -0.611634,5.03016 -0.700454,5.31602 -1.321426,4.25246 z"
         id="path78" /></clipPath><clipPath
       clipPathUnits="userSpaceOnUse"
       id="clipPath8"><path
         id="path8"
         style="fill:url(#linearGradient8);fill-opacity:1;stroke:#45a5c7;stroke-width:1.5;stroke-linecap:square;stroke-dasharray:none;stroke-opacity:1"
         d="m 244.18948,48.395199 -8.30752,15.335679 -8.90556,16.439322 11.49324,18.341911 11.07408,17.675139 -0.97127,-12.76585 12.64166,0.17823 L 257.70439,62.290173 245.1983,60.6112 Z M 31.304669,13.695519 28.849921,113.21223 67.136182,113.02909 67.423366,69.955466 c 4.781895,0.357344 7.679463,1.163701 8.752546,2.42002 1.123502,1.256383 1.681382,4.349461 1.673183,9.30482 l -0.05179,31.297794 30.108911,-0.14402 -0.29404,-23.517251 c -0.0887,-7.092564 -0.40262,-11.40947 -0.94691,-12.989185 -0.4972,-1.613192 -1.78846,-3.431346 -3.88259,-5.459926 -2.10764,-2.041654 -6.249075,-3.886863 -12.520629,-5.557003 6.902449,0.129603 11.414389,-0.873881 13.656899,-2.986547 2.21763,-2.089222 3.27506,-6.452361 3.19223,-13.076966 -0.0901,-7.20703 -1.72646,-12.645764 -4.93415,-16.380186 C 98.986905,29.070204 94.800076,26.335545 89.564214,24.666945 84.275876,22.973891 73.82771,20.814804 57.591634,18.096531 Z m 86.653401,14.50767 1.51762,84.575541 45.8706,-0.21941 -0.62653,-15.854269 -18.20668,-0.56255 -0.55135,-17.843079 15.47846,1.073973 -0.56258,-14.696953 -15.38535,-1.570614 -0.46127,-14.92781 16.30425,2.18719 -0.58137,-14.997068 z m 50.93564,8.527739 3.23721,75.795942 27.48039,-0.13145 c 4.82435,-0.0231 8.347,-0.27828 10.63151,-0.76033 2.25551,-0.50565 4.10133,-1.3546 5.55036,-2.54465 1.43443,-1.20845 2.37377,-2.85669 2.82419,-4.94447 0.47547,-2.10536 0.50903,-6.257637 0.10587,-12.435381 L 217.1726,67.94984 c -0.41333,-6.333558 -0.88859,-10.579298 -1.42969,-12.767323 -0.54286,-2.215293 -1.68023,-4.317773 -3.41819,-6.316573 -1.74933,-2.01189 -4.24963,-3.667293 -7.53184,-4.971188 -3.30238,-1.318988 -9.74369,-2.784829 -19.62473,-4.439132 z M 67.655309,35.16713 c 3.949818,0.549055 6.620495,1.360743 8.050401,2.44092 1.476154,1.082431 2.211284,3.036805 2.206598,5.868658 l -0.0082,4.928014 c -0.0066,3.967114 -0.780252,6.247336 -2.326044,6.833535 -1.502054,0.557978 -4.177114,0.64482 -8.058295,0.25107 z M 191.01451,52.314983 c 2.23048,0.310053 3.74893,0.734953 4.56929,1.276081 0.81595,0.51059 1.35778,1.223641 1.62875,2.142117 0.27091,0.918277 0.49536,2.957316 0.67315,6.123092 l 1.54752,27.555383 c 0.26986,4.8052 0.0991,7.756598 -0.5133,8.841137 -0.61675,1.059259 -2.40256,1.552848 -5.38803,1.475929 z m 79.57289,11.392157 3.69127,40.51672 3.5862,0.0665 -3.72036,-40.092273 z m -9.45678,-1.154506 3.57949,41.333126 6.58423,0.12523 -3.63846,-40.560503 z m -89.05555,62.959056 c -5.14188,0.17736 -9.71871,1.09022 -13.69419,2.76135 -4.05368,1.70399 -7.30674,4.07823 -9.72237,7.1251 -2.40705,3.08634 -3.82101,6.46523 -4.22216,10.1208 -0.36193,3.63665 -0.41741,9.83895 -0.16289,18.64394 l 0.43817,15.15827 c 0.26661,9.22327 0.71413,15.67925 1.34193,19.31117 0.62851,3.63604 2.34639,6.76754 5.13695,9.37626 2.76597,2.58573 6.31411,4.18443 10.60261,4.8046 4.25338,0.5639 8.91309,0.24128 13.94591,-0.9367 5.18026,-1.21249 9.57968,-3.02989 13.23938,-5.44138 3.59083,-2.36609 6.33381,-5.17768 8.26255,-8.43961 1.93867,-3.22823 2.99552,-6.52964 3.18735,-9.91939 0.22273,-3.41219 0.11772,-9.07923 -0.31148,-16.97286 l -0.72375,-13.31084 c -0.43127,-7.93164 -0.92984,-13.43363 -1.49804,-16.54576 -0.56763,-3.1091 -1.97039,-5.93081 -4.22335,-8.47922 -2.27042,-2.56818 -5.23004,-4.44606 -8.90707,-5.63378 -3.7019,-1.2402 -7.91975,-1.78647 -12.68955,-1.62195 z m 52.22699,-1.80143 c -4.36285,0.15048 -8.11981,1.00459 -11.23596,2.57932 -3.17357,1.57278 -5.45718,3.70523 -6.81849,6.39851 -1.34304,2.71838 -1.85522,6.95584 -1.52624,12.71196 0.2292,4.01026 0.95006,7.25882 2.15817,9.73367 1.23654,2.46403 2.70552,4.32668 4.40159,5.58725 1.6847,1.25212 5.04647,3.15421 10.01319,5.67044 4.85965,2.43281 7.87404,4.20104 9.11607,5.33572 1.20745,1.13391 1.95619,3.83507 2.25204,8.12321 0.13486,1.9547 -0.0627,3.48959 -0.59613,4.60364 -0.5068,1.1129 -1.36767,1.7924 -2.5874,2.03674 -1.22761,0.24593 -2.12213,0.0205 -2.6763,-0.67775 -0.52563,-0.70541 -0.88043,-2.45494 -1.06391,-5.24288 l -0.59268,-9.00514 -18.12538,2.88546 0.2914,5.07281 c 0.33513,5.83389 1.19461,10.23795 2.5763,13.18581 1.37744,2.93878 4.02309,5.0191 7.88829,6.2276 3.83023,1.18093 8.26384,1.16632 13.25143,-0.001 4.43315,-1.03762 8.17526,-2.75373 11.26041,-5.13475 3.02551,-2.36612 4.95988,-4.84933 5.83883,-7.46596 0.89817,-2.60108 1.15415,-6.38612 0.77379,-11.35389 -0.52046,-6.79764 -1.84809,-11.55943 -3.99769,-14.33181 -2.16641,-2.79407 -7.23706,-6.13264 -15.42164,-10.11141 -2.92686,-1.41593 -4.75091,-2.70735 -5.44408,-3.86283 -0.72392,-1.1552 -1.1642,-2.93584 -1.3214,-5.33178 -0.12203,-1.85983 0.0653,-3.2648 0.56015,-4.21532 0.52211,-0.94893 1.33293,-1.45615 2.42928,-1.5281 1.00429,-0.0659 1.74092,0.21854 2.21362,0.85691 0.47194,0.63735 0.79131,2.17559 0.95837,4.61522 l 0.35911,5.24418 15.97785,-1.50903 -0.20346,-2.67969 c -0.40783,-5.37126 -1.18886,-9.12357 -2.34999,-11.28206 -1.14079,-2.19482 -3.30515,-3.96266 -6.52657,-5.31127 -3.24403,-1.37059 -7.17308,-1.98442 -11.83257,-1.8237 z m -195.932793,8.98793 -2.759217,111.86003 35.904042,-8.25248 0.618887,-70.32342 13.213394,67.14409 21.779032,-5.00587 10.700755,-68.23987 0.8,65.59644 26.64808,-6.12502 -2.19073,-90.66778 -39.268955,1.50525 -7.436507,45.88733 -4.766776,-24.72182 c -1.474351,-7.89735 -2.86426,-14.7402 -4.172844,-20.53779 z m 218.962313,-8.3932 1.03156,13.28543 9.29005,-0.69923 4.37234,53.32733 14.82578,-3.40768 -4.53367,-51.02339 8.14268,-0.61287 -1.12097,-12.09651 z m -74.57004,14.76928 c 1.44843,-0.0951 2.41273,0.37057 2.90094,1.39795 0.52295,0.99062 0.86777,3.35212 1.03308,7.09819 l 1.66408,37.70947 c 0.21742,4.92702 0.13139,8.09967 -0.2603,9.5051 -0.39297,1.41005 -1.40247,2.27931 -3.03395,2.60614 -1.60548,0.32162 -2.6677,-0.0521 -3.17839,-1.12405 -0.47258,-1.08059 -0.81035,-4.1045 -1.0117,-9.05309 l -1.58721,-39.00748 c -0.17151,-4.2152 0.0494,-6.75876 0.65825,-7.64134 0.64284,-0.91525 1.58206,-1.40997 2.8152,-1.49089 z"
         inkscape:path-effect="#path-effect8"
         inkscape:original-d="m 228.34961,33.341797 -13.9707,15.853515 -13.97266,15.855469 13.97266,15.855469 13.9707,15.855469 0.0547,-11.632813 19.36132,-0.06445 V 45.037109 l -19.3496,0.0332 z M 26.933594,34.263672 v 58.841797 h 23.236328 v -26.53125 c 3.20136,0 5.170305,0.375854 5.90625,1.126953 0.772742,0.751099 1.160156,2.699837 1.160156,5.849609 V 93.105469 H 78.816406 V 77.585938 c 0,-4.748887 -0.200699,-7.6437 -0.605468,-8.685547 -0.367973,-1.066077 -1.3435,-2.230326 -2.925782,-3.490235 -1.582281,-1.259908 -4.673781,-2.264525 -9.273437,-3.015625 5.07802,-0.314977 8.481467,-1.261051 10.210937,-2.835937 1.729471,-1.574886 2.59375,-4.651185 2.59375,-9.230469 0,-5.015406 -1.231849,-8.661926 -3.697265,-10.939453 C 72.690523,37.086916 69.525508,35.656877 65.625,35.099609 61.761289,34.542342 54.346439,34.263672 43.380859,34.263672 Z m 60.880859,0 V 93.105469 H 128.10742 V 81.330078 H 111.05273 V 68.390625 h 14.51563 V 57.197266 H 111.05273 V 46.039062 h 15.50977 v -11.77539 z m 46.970707,0 v 58.841797 h 29.31054 c 5.55639,0 9.71482,-0.194367 12.47461,-0.582031 2.75979,-0.411894 5.07647,-1.114033 6.95313,-2.107422 1.87666,-1.017619 3.18398,-2.41097 3.91992,-4.179688 0.77274,-1.792947 1.1582,-5.331356 1.1582,-10.613281 V 55.015625 c 0,-5.572673 -0.25632,-9.303496 -0.77148,-11.193359 -0.51516,-1.914093 -1.80459,-3.646609 -3.86524,-5.197266 -2.06064,-1.550657 -5.07667,-2.665338 -9.05078,-3.34375 -3.9373,-0.678412 -11.51902,-1.017578 -22.74218,-1.017578 z M 50.169922,44.332031 c 2.686199,0 4.526005,0.289598 5.519531,0.871094 1.030323,0.581496 1.546875,1.806241 1.546875,3.671875 v 3.234375 c 0,2.592504 -0.534442,4.130654 -1.601562,4.615234 -1.030323,0.460352 -2.852239,0.691407 -5.464844,0.691407 z m 107.853518,0 c 2.53901,0 4.26951,0.181487 5.18945,0.544922 0.91993,0.339206 1.50804,0.883666 1.76563,1.634766 0.25758,0.751099 0.38671,2.459808 0.38671,5.125 v 22.859375 c 0,3.9251 -0.38741,6.335948 -1.16015,7.232422 -0.77274,0.872244 -2.83309,1.308593 -6.18164,1.308593 z m 111.2207,0.34375 v 40.751953 h 6.20703 V 44.675781 Z m -15.90625,0.152344 v 40.445313 h 10.86523 V 44.828125 Z m -119.1582,57.923825 c -5.04122,0 -9.45793,0.54446 -13.24805,1.63477 -3.79011,1.0903 -6.8081,2.65421 -9.05273,4.68945 -2.20784,2.03524 -3.5311,4.28841 -3.97266,6.75977 -0.40477,2.44713 -0.60742,6.62718 -0.60742,12.53906 v 10.06641 c 0,6.05725 0.22054,10.2978 0.66211,12.7207 0.44156,2.4229 1.82044,4.66319 4.13867,6.72266 2.31823,2.05946 5.37394,3.61049 9.16406,4.65234 3.82691,1.01762 8.13238,1.52539 12.91602,1.52539 5.04122,0 9.45598,-0.54446 13.24609,-1.63477 3.79012,-1.0903 6.78826,-2.65226 8.9961,-4.6875 2.24462,-2.03523 3.56984,-4.27747 3.9746,-6.72461 0.44158,-2.47135 0.66211,-6.66233 0.66211,-12.57421 V 128.375 c 0,-6.05725 -0.22053,-10.2978 -0.66211,-12.7207 -0.44156,-2.4229 -1.82044,-4.66515 -4.13867,-6.72461 -2.31822,-2.05947 -5.39184,-3.59762 -9.21875,-4.61524 -3.79011,-1.04184 -8.07573,-1.5625 -12.85937,-1.5625 z m 58.83789,0 c -5.51958,0 -10.23035,0.59403 -14.13086,1.78125 -3.90051,1.163 -6.73373,2.78545 -8.5,4.86914 -1.72947,2.0837 -2.59375,5.38013 -2.59375,9.88672 0,3.12554 0.60796,5.69212 1.82226,7.70313 1.25111,2.01101 2.81475,3.58584 4.69141,4.72461 1.87665,1.13876 5.7033,2.96846 11.48047,5.48828 5.77717,2.49559 9.40116,4.27768 10.87305,5.34375 1.43509,1.06608 2.15234,3.33017 2.15234,6.79492 0,1.57488 -0.38546,2.76294 -1.1582,3.5625 -0.73595,0.79956 -1.87639,1.19922 -3.42188,1.19922 -1.54548,0 -2.63226,-0.31536 -3.25781,-0.94531 -0.58876,-0.62996 -0.88281,-2.04712 -0.88281,-4.25196 v -7.16015 h -21.58008 v 3.85351 c 0,4.40968 0.67952,7.81227 2.04101,10.21094 1.3615,2.39867 4.23246,4.37512 8.61133,5.92578 4.41567,1.55066 9.73244,2.32422 15.95117,2.32422 5.66678,0 10.63387,-0.66545 14.90235,-1.99805 4.26848,-1.35682 7.13944,-3.02884 8.61133,-5.01562 1.50868,-1.98678 2.26367,-5.07596 2.26367,-9.26758 0,-5.76651 -1.3431,-9.94656 -4.0293,-12.53906 -2.6862,-2.59251 -9.20099,-5.91079 -19.54101,-9.95703 -3.60613,-1.40529 -5.79562,-2.60427 -6.56836,-3.59766 -0.80954,-0.99339 -1.21289,-2.473 -1.21289,-4.43555 0,-1.52643 0.34967,-2.66491 1.04882,-3.41601 0.73595,-0.7511 1.80289,-1.125 3.20118,-1.125 1.2879,0 2.2078,0.27671 2.75976,0.83398 0.55196,0.55727 0.82813,1.85539 0.82813,3.89063 v 4.35937 h 21.58007 v -2.32422 c 0,-4.6762 -0.69741,-7.98355 -2.0957,-9.92187 -1.3615,-1.96255 -4.17683,-3.58696 -8.44531,-4.8711 -4.23168,-1.28413 -9.36564,-1.92578 -15.40039,-1.92578 z m -166.083986,1.23633 v 58.83984 h 20.3125 v -38.81445 l 8.554687,38.81445 h 14.40625 l 8.113281,-39.7246 v 39.7246 h 20.3125 V 103.98828 H 68.330078 l -5.298828,27.47461 -3.201172,-14.97266 c -0.993526,-4.79734 -1.93132,-8.96451 -2.814453,-12.50195 z m 197.269526,0 v 11.77539 h 13.74415 v 47.06445 h 23.23828 v -47.06445 h 13.79883 v -11.77539 z m -89.91406,8.72266 c 1.43509,0 2.37288,0.38678 2.81446,1.16211 0.47836,0.7511 0.71875,2.49454 0.71875,5.23242 v 27.04101 c 0,3.46476 -0.22054,5.65743 -0.66211,6.57813 -0.44157,0.9207 -1.45483,1.38086 -3.03711,1.38086 -1.54549,0 -2.53891,-0.39966 -2.98047,-1.19922 -0.40477,-0.79956 -0.60742,-2.90793 -0.60742,-6.32422 v -27.47656 c 0,-3.02863 0.3139,-4.84545 0.93945,-5.45117 0.66235,-0.62996 1.60015,-0.94336 2.81445,-0.94336 z"
         transform="translate(-3.0497235,20.851473)" /></clipPath><linearGradient
       inkscape:collect="always"
       xlink:href="#linearGradient3-1"
       id="linearGradient8"
       gradientUnits="userSpaceOnUse"
       gradientTransform="matrix(0.63201945,0,0,0.62761113,157.14406,-74.886598)"
       x1="-125.95338"
       y1="193.88341"
       x2="103.14753"
       y2="376.2507" /></defs><g
     inkscape:label="Layer 1"
     inkscape:groupmode="layer"
     id="layer1"><path
       id="path10"
       style="fill:url(#linearGradient19);fill-opacity:1;stroke:#45a5c7;stroke-width:1.5;stroke-linecap:square;stroke-dasharray:none;stroke-opacity:1"
       d="m 244.18948,48.395199 -8.30752,15.335679 -8.90556,16.439322 11.49324,18.341911 11.07408,17.675139 -0.97127,-12.76585 12.64166,0.17823 L 257.70439,62.290173 245.1983,60.6112 Z M 31.304669,13.695519 28.849921,113.21223 67.136182,113.02909 67.423366,69.955466 c 4.781895,0.357344 7.679463,1.163701 8.752546,2.42002 1.123502,1.256383 1.681382,4.349461 1.673183,9.30482 l -0.05179,31.297794 30.108911,-0.14402 -0.29404,-23.517251 c -0.0887,-7.092564 -0.40262,-11.40947 -0.94691,-12.989185 -0.4972,-1.613192 -1.78846,-3.431346 -3.88259,-5.459926 -2.10764,-2.041654 -6.249075,-3.886863 -12.520629,-5.557003 6.902449,0.129603 11.414389,-0.873881 13.656899,-2.986547 2.21763,-2.089222 3.27506,-6.452361 3.19223,-13.076966 -0.0901,-7.20703 -1.72646,-12.645764 -4.93415,-16.380186 C 98.986905,29.070204 94.800076,26.335545 89.564214,24.666945 84.275876,22.973891 73.82771,20.814804 57.591634,18.096531 Z m 86.653401,14.50767 1.51762,84.575541 45.8706,-0.21941 -0.62653,-15.854269 -18.20668,-0.56255 -0.55135,-17.843079 15.47846,1.073973 -0.56258,-14.696953 -15.38535,-1.570614 -0.46127,-14.92781 16.30425,2.18719 -0.58137,-14.997068 z m 50.93564,8.527739 3.23721,75.795942 27.48039,-0.13145 c 4.82435,-0.0231 8.347,-0.27828 10.63151,-0.76033 2.25551,-0.50565 4.10133,-1.3546 5.55036,-2.54465 1.43443,-1.20845 2.37377,-2.85669 2.82419,-4.94447 0.47547,-2.10536 0.50903,-6.257637 0.10587,-12.435381 L 217.1726,67.94984 c -0.41333,-6.333558 -0.88859,-10.579298 -1.42969,-12.767323 -0.54286,-2.215293 -1.68023,-4.317773 -3.41819,-6.316573 -1.74933,-2.01189 -4.24963,-3.667293 -7.53184,-4.971188 -3.30238,-1.318988 -9.74369,-2.784829 -19.62473,-4.439132 z M 67.655309,35.16713 c 3.949818,0.549055 6.620495,1.360743 8.050401,2.44092 1.476154,1.082431 2.211284,3.036805 2.206598,5.868658 l -0.0082,4.928014 c -0.0066,3.967114 -0.780252,6.247336 -2.326044,6.833535 -1.502054,0.557978 -4.177114,0.64482 -8.058295,0.25107 z M 191.01451,52.314983 c 2.23048,0.310053 3.74893,0.734953 4.56929,1.276081 0.81595,0.51059 1.35778,1.223641 1.62875,2.142117 0.27091,0.918277 0.49536,2.957316 0.67315,6.123092 l 1.54752,27.555383 c 0.26986,4.8052 0.0991,7.756598 -0.5133,8.841137 -0.61675,1.059259 -2.40256,1.552848 -5.38803,1.475929 z m 79.57289,11.392157 3.69127,40.51672 3.5862,0.0665 -3.72036,-40.092273 z m -9.45678,-1.154506 3.57949,41.333126 6.58423,0.12523 -3.63846,-40.560503 z m -89.05555,62.959056 c -5.14188,0.17736 -9.71871,1.09022 -13.69419,2.76135 -4.05368,1.70399 -7.30674,4.07823 -9.72237,7.1251 -2.40705,3.08634 -3.82101,6.46523 -4.22216,10.1208 -0.36193,3.63665 -0.41741,9.83895 -0.16289,18.64394 l 0.43817,15.15827 c 0.26661,9.22327 0.71413,15.67925 1.34193,19.31117 0.62851,3.63604 2.34639,6.76754 5.13695,9.37626 2.76597,2.58573 6.31411,4.18443 10.60261,4.8046 4.25338,0.5639 8.91309,0.24128 13.94591,-0.9367 5.18026,-1.21249 9.57968,-3.02989 13.23938,-5.44138 3.59083,-2.36609 6.33381,-5.17768 8.26255,-8.43961 1.93867,-3.22823 2.99552,-6.52964 3.18735,-9.91939 0.22273,-3.41219 0.11772,-9.07923 -0.31148,-16.97286 l -0.72375,-13.31084 c -0.43127,-7.93164 -0.92984,-13.43363 -1.49804,-16.54576 -0.56763,-3.1091 -1.97039,-5.93081 -4.22335,-8.47922 -2.27042,-2.56818 -5.23004,-4.44606 -8.90707,-5.63378 -3.7019,-1.2402 -7.91975,-1.78647 -12.68955,-1.62195 z m 52.22699,-1.80143 c -4.36285,0.15048 -8.11981,1.00459 -11.23596,2.57932 -3.17357,1.57278 -5.45718,3.70523 -6.81849,6.39851 -1.34304,2.71838 -1.85522,6.95584 -1.52624,12.71196 0.2292,4.01026 0.95006,7.25882 2.15817,9.73367 1.23654,2.46403 2.70552,4.32668 4.40159,5.58725 1.6847,1.25212 5.04647,3.15421 10.01319,5.67044 4.85965,2.43281 7.87404,4.20104 9.11607,5.33572 1.20745,1.13391 1.95619,3.83507 2.25204,8.12321 0.13486,1.9547 -0.0627,3.48959 -0.59613,4.60364 -0.5068,1.1129 -1.36767,1.7924 -2.5874,2.03674 -1.22761,0.24593 -2.12213,0.0205 -2.6763,-0.67775 -0.52563,-0.70541 -0.88043,-2.45494 -1.06391,-5.24288 l -0.59268,-9.00514 -18.12538,2.88546 0.2914,5.07281 c 0.33513,5.83389 1.19461,10.23795 2.5763,13.18581 1.37744,2.93878 4.02309,5.0191 7.88829,6.2276 3.83023,1.18093 8.26384,1.16632 13.25143,-0.001 4.43315,-1.03762 8.17526,-2.75373 11.26041,-5.13475 3.02551,-2.36612 4.95988,-4.84933 5.83883,-7.46596 0.89817,-2.60108 1.15415,-6.38612 0.77379,-11.35389 -0.52046,-6.79764 -1.84809,-11.55943 -3.99769,-14.33181 -2.16641,-2.79407 -7.23706,-6.13264 -15.42164,-10.11141 -2.92686,-1.41593 -4.75091,-2.70735 -5.44408,-3.86283 -0.72392,-1.1552 -1.1642,-2.93584 -1.3214,-5.33178 -0.12203,-1.85983 0.0653,-3.2648 0.56015,-4.21532 0.52211,-0.94893 1.33293,-1.45615 2.42928,-1.5281 1.00429,-0.0659 1.74092,0.21854 2.21362,0.85691 0.47194,0.63735 0.79131,2.17559 0.95837,4.61522 l 0.35911,5.24418 15.97785,-1.50903 -0.20346,-2.67969 c -0.40783,-5.37126 -1.18886,-9.12357 -2.34999,-11.28206 -1.14079,-2.19482 -3.30515,-3.96266 -6.52657,-5.31127 -3.24403,-1.37059 -7.17308,-1.98442 -11.83257,-1.8237 z m -195.932793,8.98793 -2.759217,111.86003 35.904042,-8.25248 0.618887,-70.32342 13.213394,67.14409 21.779032,-5.00587 10.700755,-68.23987 0.8,65.59644 26.64808,-6.12502 -2.19073,-90.66778 -39.268955,1.50525 -7.436507,45.88733 -4.766776,-24.72182 c -1.474351,-7.89735 -2.86426,-14.7402 -4.172844,-20.53779 z m 218.962313,-8.3932 1.03156,13.28543 9.29005,-0.69923 4.37234,53.32733 14.82578,-3.40768 -4.53367,-51.02339 8.14268,-0.61287 -1.12097,-12.09651 z m -74.57004,14.76928 c 1.44843,-0.0951 2.41273,0.37057 2.90094,1.39795 0.52295,0.99062 0.86777,3.35212 1.03308,7.09819 l 1.66408,37.70947 c 0.21742,4.92702 0.13139,8.09967 -0.2603,9.5051 -0.39297,1.41005 -1.40247,2.27931 -3.03395,2.60614 -1.60548,0.32162 -2.6677,-0.0521 -3.17839,-1.12405 -0.47258,-1.08059 -0.81035,-4.1045 -1.0117,-9.05309 l -1.58721,-39.00748 c -0.17151,-4.2152 0.0494,-6.75876 0.65825,-7.64134 0.64284,-0.91525 1.58206,-1.40997 2.8152,-1.49089 z"
       inkscape:path-effect="#path-effect5"
       inkscape:original-d="m 228.34961,33.341797 -13.9707,15.853515 -13.97266,15.855469 13.97266,15.855469 13.9707,15.855469 0.0547,-11.632813 19.36132,-0.06445 V 45.037109 l -19.3496,0.0332 z M 26.933594,34.263672 v 58.841797 h 23.236328 v -26.53125 c 3.20136,0 5.170305,0.375854 5.90625,1.126953 0.772742,0.751099 1.160156,2.699837 1.160156,5.849609 V 93.105469 H 78.816406 V 77.585938 c 0,-4.748887 -0.200699,-7.6437 -0.605468,-8.685547 -0.367973,-1.066077 -1.3435,-2.230326 -2.925782,-3.490235 -1.582281,-1.259908 -4.673781,-2.264525 -9.273437,-3.015625 5.07802,-0.314977 8.481467,-1.261051 10.210937,-2.835937 1.729471,-1.574886 2.59375,-4.651185 2.59375,-9.230469 0,-5.015406 -1.231849,-8.661926 -3.697265,-10.939453 C 72.690523,37.086916 69.525508,35.656877 65.625,35.099609 61.761289,34.542342 54.346439,34.263672 43.380859,34.263672 Z m 60.880859,0 V 93.105469 H 128.10742 V 81.330078 H 111.05273 V 68.390625 h 14.51563 V 57.197266 H 111.05273 V 46.039062 h 15.50977 v -11.77539 z m 46.970707,0 v 58.841797 h 29.31054 c 5.55639,0 9.71482,-0.194367 12.47461,-0.582031 2.75979,-0.411894 5.07647,-1.114033 6.95313,-2.107422 1.87666,-1.017619 3.18398,-2.41097 3.91992,-4.179688 0.77274,-1.792947 1.1582,-5.331356 1.1582,-10.613281 V 55.015625 c 0,-5.572673 -0.25632,-9.303496 -0.77148,-11.193359 -0.51516,-1.914093 -1.80459,-3.646609 -3.86524,-5.197266 -2.06064,-1.550657 -5.07667,-2.665338 -9.05078,-3.34375 -3.9373,-0.678412 -11.51902,-1.017578 -22.74218,-1.017578 z M 50.169922,44.332031 c 2.686199,0 4.526005,0.289598 5.519531,0.871094 1.030323,0.581496 1.546875,1.806241 1.546875,3.671875 v 3.234375 c 0,2.592504 -0.534442,4.130654 -1.601562,4.615234 -1.030323,0.460352 -2.852239,0.691407 -5.464844,0.691407 z m 107.853518,0 c 2.53901,0 4.26951,0.181487 5.18945,0.544922 0.91993,0.339206 1.50804,0.883666 1.76563,1.634766 0.25758,0.751099 0.38671,2.459808 0.38671,5.125 v 22.859375 c 0,3.9251 -0.38741,6.335948 -1.16015,7.232422 -0.77274,0.872244 -2.83309,1.308593 -6.18164,1.308593 z m 111.2207,0.34375 v 40.751953 h 6.20703 V 44.675781 Z m -15.90625,0.152344 v 40.445313 h 10.86523 V 44.828125 Z m -119.1582,57.923825 c -5.04122,0 -9.45793,0.54446 -13.24805,1.63477 -3.79011,1.0903 -6.8081,2.65421 -9.05273,4.68945 -2.20784,2.03524 -3.5311,4.28841 -3.97266,6.75977 -0.40477,2.44713 -0.60742,6.62718 -0.60742,12.53906 v 10.06641 c 0,6.05725 0.22054,10.2978 0.66211,12.7207 0.44156,2.4229 1.82044,4.66319 4.13867,6.72266 2.31823,2.05946 5.37394,3.61049 9.16406,4.65234 3.82691,1.01762 8.13238,1.52539 12.91602,1.52539 5.04122,0 9.45598,-0.54446 13.24609,-1.63477 3.79012,-1.0903 6.78826,-2.65226 8.9961,-4.6875 2.24462,-2.03523 3.56984,-4.27747 3.9746,-6.72461 0.44158,-2.47135 0.66211,-6.66233 0.66211,-12.57421 V 128.375 c 0,-6.05725 -0.22053,-10.2978 -0.66211,-12.7207 -0.44156,-2.4229 -1.82044,-4.66515 -4.13867,-6.72461 -2.31822,-2.05947 -5.39184,-3.59762 -9.21875,-4.61524 -3.79011,-1.04184 -8.07573,-1.5625 -12.85937,-1.5625 z m 58.83789,0 c -5.51958,0 -10.23035,0.59403 -14.13086,1.78125 -3.90051,1.163 -6.73373,2.78545 -8.5,4.86914 -1.72947,2.0837 -2.59375,5.38013 -2.59375,9.88672 0,3.12554 0.60796,5.69212 1.82226,7.70313 1.25111,2.01101 2.81475,3.58584 4.69141,4.72461 1.87665,1.13876 5.7033,2.96846 11.48047,5.48828 5.77717,2.49559 9.40116,4.27768 10.87305,5.34375 1.43509,1.06608 2.15234,3.33017 2.15234,6.79492 0,1.57488 -0.38546,2.76294 -1.1582,3.5625 -0.73595,0.79956 -1.87639,1.19922 -3.42188,1.19922 -1.54548,0 -2.63226,-0.31536 -3.25781,-0.94531 -0.58876,-0.62996 -0.88281,-2.04712 -0.88281,-4.25196 v -7.16015 h -21.58008 v 3.85351 c 0,4.40968 0.67952,7.81227 2.04101,10.21094 1.3615,2.39867 4.23246,4.37512 8.61133,5.92578 4.41567,1.55066 9.73244,2.32422 15.95117,2.32422 5.66678,0 10.63387,-0.66545 14.90235,-1.99805 4.26848,-1.35682 7.13944,-3.02884 8.61133,-5.01562 1.50868,-1.98678 2.26367,-5.07596 2.26367,-9.26758 0,-5.76651 -1.3431,-9.94656 -4.0293,-12.53906 -2.6862,-2.59251 -9.20099,-5.91079 -19.54101,-9.95703 -3.60613,-1.40529 -5.79562,-2.60427 -6.56836,-3.59766 -0.80954,-0.99339 -1.21289,-2.473 -1.21289,-4.43555 0,-1.52643 0.34967,-2.66491 1.04882,-3.41601 0.73595,-0.7511 1.80289,-1.125 3.20118,-1.125 1.2879,0 2.2078,0.27671 2.75976,0.83398 0.55196,0.55727 0.82813,1.85539 0.82813,3.89063 v 4.35937 h 21.58007 v -2.32422 c 0,-4.6762 -0.69741,-7.98355 -2.0957,-9.92187 -1.3615,-1.96255 -4.17683,-3.58696 -8.44531,-4.8711 -4.23168,-1.28413 -9.36564,-1.92578 -15.40039,-1.92578 z m -166.083986,1.23633 v 58.83984 h 20.3125 v -38.81445 l 8.554687,38.81445 h 14.40625 l 8.113281,-39.7246 v 39.7246 h 20.3125 V 103.98828 H 68.330078 l -5.298828,27.47461 -3.201172,-14.97266 c -0.993526,-4.79734 -1.93132,-8.96451 -2.814453,-12.50195 z m 197.269526,0 v 11.77539 h 13.74415 v 47.06445 h 23.23828 v -47.06445 h 13.79883 v -11.77539 z m -89.91406,8.72266 c 1.43509,0 2.37288,0.38678 2.81446,1.16211 0.47836,0.7511 0.71875,2.49454 0.71875,5.23242 v 27.04101 c 0,3.46476 -0.22054,5.65743 -0.66211,6.57813 -0.44157,0.9207 -1.45483,1.38086 -3.03711,1.38086 -1.54549,0 -2.53891,-0.39966 -2.98047,-1.19922 -0.40477,-0.79956 -0.60742,-2.90793 -0.60742,-6.32422 v -27.47656 c 0,-3.02863 0.3139,-4.84545 0.93945,-5.45117 0.66235,-0.62996 1.60015,-0.94336 2.81445,-0.94336 z"
       transform="translate(-3.0497235,20.851473)" /><path
       style="fill:#0c0c0c;stroke-width:1;fill-opacity:1;opacity:0.30519387;stroke:#000000;stroke-opacity:1;stroke-dasharray:none"
       d="m -3.5348614,257.06668 c -0.1059313,-0.15075 -0.3027993,-0.88021 -0.4374884,-1.62103 -0.1346899,-0.74083 -0.386199,-1.34695 -0.5589081,-1.34695 -0.4381227,0 -1.5899506,-2.0792 -2.3797317,-4.29572 -0.3653308,-1.02531 -0.7830429,-1.86419 -0.9282497,-1.86419 -0.1452028,0 -0.5710769,1.11995 -0.9463818,2.48879 -0.7448288,2.71655 -1.2843059,3.21919 -1.9551969,1.82167 -0.239293,-0.49846 -0.712663,-1.40067 -1.051932,-2.00492 l -0.616858,-1.09861 -0.372288,1.90912 c -0.413266,2.11927 -0.129171,2.00341 -3.963769,1.6163 -1.289475,-0.13017 -1.39956,-0.0721 -1.68222,0.88729 -0.437879,1.48623 -1.254961,1.28232 -1.732507,-0.43234 l -0.406321,-1.45893 -0.943747,0.89156 c -1.084183,1.02423 -1.603198,1.11305 -2.084472,0.35667 -0.292783,-0.46014 -0.411246,-0.40853 -0.84771,0.36923 -0.279048,0.49728 -0.654693,0.87141 -0.834768,0.83142 -0.180075,-0.0399 -0.467822,0.1221 -0.639439,0.36023 -0.21439,0.29748 -0.313799,0.15396 -0.317676,-0.45863 -0.0037,-0.5709 0.189425,-0.89155 0.536742,-0.89155 0.300126,0 0.678149,-0.4608 0.846331,-1.03162 0.388219,-1.31768 1.063305,-1.51602 1.604472,-0.47139 l 0.423432,0.81736 1.096492,-0.96438 c 1.278298,-1.12428 2.122034,-0.83915 2.122034,0.7171 0,0.5131 0.165877,0.93293 0.368619,0.93293 0.20274,0 0.368619,-0.27393 0.368619,-0.60872 0,-0.89645 0.968514,-1.51617 1.622938,-1.03848 0.397154,0.28989 0.557458,0.2803 0.691162,-0.0414 0.139389,-0.33533 0.271409,-0.33803 0.6625,-0.0136 0.821014,0.68122 2.148512,0.49733 2.340437,-0.32422 0.656039,-2.80813 0.826846,-3.28714 1.212452,-3.40019 0.248899,-0.0731 0.609504,0.44951 0.84809,1.22877 0.228285,0.74566 0.70275,1.62732 1.054364,1.95926 0.6141199,0.57976 0.6566477,0.52964 1.0798957,-1.27262 0.5675082,-2.41657 1.2328322,-3.28156 2.0597739,-2.67794 0.3260515,0.23797 0.5928211,0.64527 0.5928211,0.90508 0,0.84529 1.9260978,4.7821 2.6310268,5.37762 0.3775987,0.31899 0.6865461,0.96335 0.6865461,1.43191 0,1.8995 0.4754042,0.23779 0.9425183,-3.29444 0.2730477,-2.06472 0.5971674,-3.89737 0.7202675,-4.07255 0.4068489,-0.57899 0.83995051,-0.33233 1.25494585,0.71469 0.46908918,1.18351 0.84514418,0.98408 1.48975585,-0.79005 0.243156,-0.66923 0.682649,-1.21578 0.9776452,-1.21578 0.2947508,0 0.633287,-0.22318 0.7523068,-0.49596 0.1263629,-0.28962 0.4768537,-0.42326 0.8424242,-0.32121 0.5359803,0.14961 0.6876737,-0.23045 1.0545571,-2.64211 0.5835568,-3.83597 1.2869385,-4.35635 2.2612436,-1.67289 0.2376001,0.65442 0.6587075,1.35532 0.9357907,1.55758 0.4097936,0.29912 0.5830859,0.0317 0.9288242,-1.433 0.2644152,-1.12023 0.6147354,-1.80072 0.9269966,-1.80072 0.5152525,0 0.6803605,0.32983 1.1171115,2.23156 0.163818,0.7133 0.352367,0.95385 0.539235,0.68791 0.452344,-0.64372 1.055124,-0.0893 1.332647,1.22553 0.13981,0.66241 0.462053,1.49618 0.716093,1.8528 0.254042,0.35663 0.572224,1.25217 0.707072,1.99009 0.198711,1.08738 0.372121,1.31247 0.914979,1.18761 0.446803,-0.10277 0.747343,-0.58055 0.902712,-1.43512 0.128102,-0.7046 0.476956,-1.36345 0.775232,-1.46411 0.60706,-0.20489 1.022122,-1.43205 1.66272,-4.91596 0.351021,-1.90904 0.553352,-2.34845 1.04383,-2.26699 0.461901,0.0767 0.741562,0.81702 1.161342,3.0742 0.304111,1.63523 0.655247,3.06146 0.780304,3.16942 0.125058,0.10795 0.334368,-0.39218 0.465132,-1.11141 0.276619,-1.52145 1.171512,-1.7736 1.47688,-0.41611 0.110309,0.49036 0.541347,3.03829 0.957868,5.66207 1.028024,6.47584 1.259892,6.92006 1.819958,3.4866 0.662626,-4.0622 0.748028,-4.28438 1.573799,-4.09446 0.42794,0.0985 0.796783,-0.0301 0.924193,-0.32219 0.11662,-0.26728 0.607082,-0.61806 1.089918,-0.77952 1.168277,-0.39067 1.409093,-1.05242 2.105811,-5.78669 0.346057,-2.35147 0.810632,-4.23631 1.118642,-4.53844 0.289731,-0.28422 0.636461,-1.03685 0.770507,-1.6725 0.30175,-1.43092 0.728619,-2.06895 1.209392,-1.80762 0.411496,0.22368 0.706134,1.7984 1.009397,5.39491 0.112768,1.33736 0.273732,3.08806 0.357701,3.89048 0.08397,0.8024 0.275449,3.42847 0.425514,5.83571 0.311285,4.99343 0.623476,4.3617 1.04142,-2.10734 0.138247,-2.13975 0.401614,-5.64119 0.585264,-7.78094 0.183654,-2.13977 0.337678,-3.9999 0.342277,-4.13363 0.0045,-0.13373 0.247016,-0.24315 0.538705,-0.24315 0.683387,0 0.868828,1.24104 1.301656,8.71129 0.357126,6.16373 0.736579,8.10328 0.764103,3.90572 0.01586,-2.41482 0.0634,-3.32466 0.735857,-14.07594 0.402843,-6.44069 1.335249,-11.71571 2.543819,-14.39149 0.434105,-0.96109 0.962174,-2.45649 1.173489,-3.32311 0.622998,-2.55494 1.817908,-1.98061 2.329513,1.11968 0.207837,1.25948 0.353454,1.49062 0.7546,1.1978 0.378184,-0.27605 0.580146,-0.23225 0.844431,0.1831 0.235975,0.37085 0.429803,0.4286 0.60444,0.18008 0.400349,-0.56973 0.796215,-0.43582 1.239143,0.41918 0.289327,0.55849 0.616195,0.73681 1.132762,0.61801 0.582042,-0.13386 0.823897,-0.65941 1.219124,-2.6492 0.357043,-1.79754 0.645552,-2.4822 1.045968,-2.4822 0.397542,0 0.63516,0.54666 0.845542,1.94523 0.160939,1.06989 0.392921,2.45586 0.515518,3.07996 l 0.222903,1.13472 0.323424,-1.28057 c 0.319904,-1.26664 1.215068,-2.4478 1.85511,-2.4478 0.181866,0 0.505285,0.44058 0.718711,0.97903 0.239771,0.60494 0.607928,0.94561 0.963484,0.89157 0.378855,-0.0576 0.686742,0.2815 0.901245,0.99254 0.288254,0.95552 0.398055,1.03071 0.952592,0.65228 1.615746,-1.10261 11.389639,-8.54268 11.951526,-9.09773 0.92193,-0.9107 1.284705,-0.50926 1.601586,1.77232 0.210166,1.51333 0.340314,1.82151 0.513656,1.21635 0.127696,-0.44578 0.473501,-0.81053 0.768474,-0.81053 0.297606,0 0.58424,0.36077 0.643995,0.81053 0.05922,0.44578 0.33814,1.68587 0.619795,2.75574 0.281674,1.06989 0.622267,3.47712 0.756899,5.34941 0.299736,4.16839 0.888702,5.04498 0.969339,1.44271 0.03172,-1.41759 0.09014,-2.94217 0.12979,-3.38795 0.03962,-0.44578 0.188681,-3.43658 0.331185,-6.64622 0.284243,-6.4025 0.404562,-7.16363 1.173385,-7.42311 0.285816,-0.0964 0.51966,-0.53609 0.51966,-0.97694 0,-1.69155 0.980472,-1.30423 1.495566,0.59081 0.252848,0.9302 0.274729,0.94179 0.309809,0.16395 0.02076,-0.46034 0.357674,-1.77336 0.748741,-2.91785 0.391047,-1.1445 0.815908,-2.77388 0.944124,-3.62086 0.272068,-1.79725 1.110234,-2.08687 1.407382,-0.48631 0.107586,0.57951 0.488318,2.7679 0.846046,4.86308 0.357746,2.09518 0.769534,3.80942 0.915084,3.80942 0.14554,0 0.382331,-0.91183 0.526192,-2.0263 0.261608,-2.02666 0.7288,-2.97718 1.308443,-2.66211 0.169532,0.0921 0.393635,-0.31067 0.498004,-0.89514 1.099739,-6.1583 1.433556,-6.9546 2.760219,-6.58429 0.517351,0.14443 0.69418,-0.18963 1.039814,-1.96432 0.229054,-1.1761 0.514411,-2.22449 0.634119,-2.32979 0.486879,-0.4282 0.997096,0.59208 1.197117,2.39386 0.34904,3.14417 0.689138,2.944 1.169179,-0.68814 0.552413,-4.17967 0.920296,-5.17066 1.80685,-4.86717 1.244993,0.42621 1.350883,0.31214 1.647233,-1.77418 0.75802,-5.33663 0.83826,-5.67361 1.35092,-5.67361 0.69915,0 1.72256,3.41283 2.23049,7.4381 0.22372,1.77289 0.47081,3.27975 0.54909,3.34861 0.0782,0.0688 0.2615,-0.85363 0.40717,-2.04995 0.17575,-1.44344 0.49407,-2.37673 0.94626,-2.77444 0.47247,-0.41556 0.81875,-1.50659 1.12933,-3.5583 0.28403,-1.87621 0.62911,-3.02013 0.94303,-3.12608 0.78964,-0.26652 1.83213,0.80576 2.26987,2.33473 0.27341,0.95499 0.58457,1.38731 0.96332,1.33842 0.98642,-0.12734 1.24212,-0.62513 1.82114,-3.54539 0.62932,-3.17407 0.7534,-3.45827 1.50977,-3.45827 0.79349,0 1.88434,2.17212 2.31344,4.60663 0.21087,1.19632 0.54156,2.42368 0.73488,2.72752 0.31648,0.49738 0.37671,0.48256 0.60454,-0.14882 0.13919,-0.38566 0.47951,-0.70121 0.75631,-0.70121 0.53358,0 0.71429,0.39069 1.09311,2.36334 l 0.23593,1.22862 1.04093,-1.71493 c 1.29265,-2.12966 1.95479,-2.29779 2.66033,-0.67552 l 0.53492,1.23003 0.63888,-3.37082 c 0.35141,-1.85397 0.72633,-3.49525 0.83319,-3.64733 0.39398,-0.56066 0.8758,-0.24836 1.19903,0.77719 0.39806,1.26299 0.55173,0.96812 1.22397,-2.34837 0.36263,-1.7891 0.65442,-2.45626 1.10698,-2.53121 0.48062,-0.0796 0.7063,0.30857 1.03547,1.78103 0.55914,2.50105 0.81334,3.05577 1.01137,2.20697 0.0832,-0.35662 0.32172,-1.12921 0.53001,-1.71685 0.30609,-0.8635 0.47743,-0.99641 0.89318,-0.69296 0.57547,0.42005 0.59284,0.39395 1.2564,-1.88591 0.38693,-1.32943 1.1447,-1.79096 1.68293,-1.02498 0.15193,0.2162 0.41021,0.0691 0.66685,-0.37966 0.7037,-1.2307 1.20699,-1.04539 1.9344,0.71225 0.3829,0.92518 1.02793,1.84244 1.43341,2.03832 1.07879,0.52115 1.23516,0.81308 1.49172,2.78492 0.1278,0.98225 0.28751,2.15065 0.35493,2.59642 0.0674,0.44579 0.2438,1.75882 0.39199,2.91787 0.2408,1.88369 0.30256,2.0041 0.58199,1.13471 0.17193,-0.53495 0.56265,-2.62958 0.86826,-4.65476 0.6048,-4.00775 0.71013,-4.31099 1.41474,-4.0732 0.34342,0.11592 0.58904,-0.60808 0.9002,-2.65344 0.23534,-1.54706 0.52871,-2.9015 0.65191,-3.00984 0.36035,-0.31692 1.26957,0.99096 1.26957,1.82623 0,0.42108 0.27912,1.81565 0.62028,3.09903 l 0.62026,2.33345 0.42064,-2.16741 c 0.23136,-1.19205 0.65229,-2.41288 0.93542,-2.71292 0.28314,-0.30005 0.69483,-1.51311 0.91487,-2.6957 0.58004,-3.11733 1.26501,-2.87626 2.09106,0.73596 0.47082,2.0588 0.86877,3.0147 1.3883,3.33474 0.48085,0.29623 0.81076,0.99546 0.97104,2.05805 0.25002,1.65774 0.44303,1.86841 1.14557,1.25051 0.57263,-0.50364 1.38455,0.72126 1.9571,2.95252 0.69488,2.70806 0.96737,2.95113 1.43817,1.28293 0.87968,-3.11704 1.17967,-3.87658 1.53119,-3.87658 0.20096,0 0.46051,0.218 0.57676,0.48445 0.3033,0.69517 0.87135,0.26548 0.87135,-0.65913 0,-1.12155 1.10159,-3.39158 1.64585,-3.39158 0.25721,0 0.71294,0.89312 1.03398,2.02629 0.31572,1.11446 0.77852,2.46397 1.02844,2.99889 l 0.45441,0.97262 0.43984,-1.29682 c 0.59047,-1.7409 1.53881,-1.88924 1.87909,-0.29395 l 0.25711,1.2054 0.52487,-0.88104 c 0.67847,-1.13892 1.31187,-0.93341 1.7414,0.565 0.26495,0.92434 0.4872,1.15417 0.98236,1.01596 0.39714,-0.11086 0.84424,0.0779 1.17838,0.49748 0.45138,0.56679 0.5738,0.59513 0.75701,0.17519 0.12021,-0.27549 0.46242,-0.50091 0.76047,-0.50091 0.60086,0 0.83709,1.13141 1.11689,5.34941 0.0947,1.42649 0.296,4.2714 0.44749,6.32201 l 0.27544,3.72836 0.46716,-2.43155 c 0.56423,-2.9368 1.10914,-6.60514 1.37253,-9.23985 0.72321,-7.23426 0.87761,-7.74936 1.93986,-6.47169 0.36599,0.44023 0.49869,0.47464 0.50339,0.13058 0.0168,-1.22519 0.75776,-6.56525 0.94874,-6.83703 0.13291,-0.18913 0.40046,-0.17352 0.69365,0.0406 0.51978,0.3794 0.67221,-0.10686 1.13699,-3.62691 0.13441,-1.01808 0.46255,-2.11228 0.72918,-2.43154 0.45025,-0.53913 0.51301,-0.51547 0.88095,0.3322 0.21788,0.50196 0.39615,1.147 0.39615,1.43339 0,0.28639 0.24196,0.75586 0.53767,1.04325 0.33859,0.32906 0.70866,1.959 0.99951,4.40232 0.43075,3.61852 0.47848,3.7668 0.70885,2.20221 0.13585,-0.92266 0.35508,-3.0381 0.48719,-4.70098 0.35394,-4.45481 0.96444,-10.09688 1.14278,-10.56122 0.33736,-0.87826 1.28448,-0.41174 1.31635,0.64842 0.0304,1.00838 0.0439,1.01796 0.3183,0.22278 0.15762,-0.45699 0.40538,-1.8065 0.55057,-2.99891 0.17732,-1.45625 0.42294,-2.16802 0.74814,-2.16802 0.68708,0 0.83903,0.50532 1.28506,4.27347 0.21781,1.83994 0.49575,3.91837 0.61767,4.61869 l 0.2217,1.27334 0.54874,-1.27334 c 0.30183,-0.70032 0.87745,-2.44046 1.27917,-3.86696 0.98757,-3.50685 0.94073,-3.40417 1.55288,-3.40417 0.35967,0 0.62557,0.49064 0.79067,1.45893 0.25824,1.51455 0.90227,2.02161 0.90227,0.71037 0,-0.4117 0.22699,-1.02156 0.50442,-1.35525 0.49167,-0.59138 0.51383,-0.5909 0.87826,0.0192 0.20561,0.34418 0.57084,1.66605 0.81161,2.93748 0.24078,1.27144 0.64724,2.9356 0.90324,3.69814 0.52782,1.5723 0.78467,1.28834 1.1749,-1.29898 0.2967,-1.96708 1.04539,-3.02517 1.61285,-2.27931 0.20347,0.26748 0.39324,1.10636 0.4217,1.86419 0.0285,0.75784 0.0932,1.52376 0.14386,1.70208 0.0506,0.17831 0.11289,1.06228 0.13823,1.96436 0.0622,2.21443 0.57447,1.808 0.70034,-0.55563 0.13772,-2.58632 0.4388,-3.73596 0.93997,-3.58902 0.23169,0.0679 0.53596,0.69568 0.67618,1.39503 0.14024,0.69937 0.37152,1.85514 0.51398,2.56838 0.14247,0.71326 0.34299,1.07799 0.44561,0.81053 0.37917,-0.98836 0.89191,-1.32726 1.42229,-0.94011 0.56474,0.41223 0.569,0.40485 1.23685,-2.13986 0.49908,-1.90161 1.28134,-3.07995 2.04467,-3.07995 0.29945,0 0.54444,-0.19095 0.54444,-0.42435 0,-0.75397 0.97222,-1.62067 1.88023,-1.67617 0.70577,-0.0431 0.99609,-0.3556 1.43734,-1.54698 0.30412,-0.82113 0.69197,-1.61291 0.8619,-1.75953 0.16994,-0.14661 0.55398,-0.77719 0.85344,-1.40129 0.52025,-1.08425 0.56797,-1.10673 1.07334,-0.50539 0.29089,0.34613 0.5289,0.83423 0.5289,1.08469 0,0.54067 1.10957,2.36243 1.72001,2.82403 0.33747,0.25519 1.59755,3.87165 1.59755,4.58504 0,0.0852 0.15101,0.073 0.33554,-0.0273 0.18454,-0.1003 0.52503,-1.17046 0.75662,-2.37808 0.53786,-2.80456 0.92723,-3.38927 1.6795,-2.52208 0.30026,0.34613 0.54592,0.91583 0.54592,1.26602 0,0.60485 0.035,0.60882 0.69995,0.0796 0.66471,-0.52908 0.7275,-0.52254 1.247,0.12979 0.54221,0.68082 0.55053,0.67814 0.93967,-0.30365 0.46413,-1.17102 1.07071,-1.2765 1.50119,-0.26108 0.26012,0.61359 0.38027,0.43007 0.75638,-1.15536 0.45286,-1.90905 1.10457,-2.52918 1.98363,-1.88753 0.35033,0.25573 0.60255,0.24787 0.91685,-0.0285 0.63105,-0.55502 1.13309,0.0244 1.48731,1.71683 l 0.30053,1.43569 0.58964,-1.78315 c 0.32431,-0.98071 0.77336,-2.58554 0.99785,-3.56626 0.50853,-2.22139 1.2325,-3.17913 1.98692,-2.62846 0.29055,0.21209 0.63005,0.74224 0.75443,1.17812 0.27657,0.96917 1.55097,0.96481 2.50996,-0.009 0.55256,-0.56086 0.6888,-0.58275 1.00895,-0.1621 0.20358,0.26746 0.47763,1.18258 0.60901,2.03356 0.31967,2.07065 0.70256,2.16784 1.23263,0.31291 0.43435,-1.52 1.27628,-2.67068 1.9541,-2.67068 0.19273,0 0.83604,-0.35938 1.42959,-0.79864 0.91679,-0.67848 1.21439,-0.74448 1.97781,-0.43854 0.95444,0.38247 1.48259,1.45869 1.88002,3.83082 0.34606,2.06567 0.72327,2.5667 1.00377,1.33321 0.28498,-1.25319 1.22318,-1.32678 1.49706,-0.11743 0.56783,2.50726 1.11346,9.03354 1.5595,18.65317 0.13877,2.99298 0.35744,5.49892 0.48592,5.56875 0.12849,0.0698 0.2401,-0.11762 0.24807,-0.41657 0.0212,-0.79599 0.49047,-8.80548 0.72519,-12.37709 0.42313,-6.43811 1.38575,-11.3472 2.22508,-11.3472 0.29367,0 0.62,0.1972 0.72516,0.43825 0.11492,0.26337 0.54168,0.37931 1.06957,0.29056 0.96024,-0.16145 1.61207,-1.30763 2.38254,-4.18949 0.24668,-0.92266 0.6891,-1.75874 0.98316,-1.85798 0.65481,-0.22101 1.26403,1.03853 1.21067,2.50297 l -0.0377,1.03255 -0.38431,-1.05367 c -0.49252,-1.35036 -0.86607,-1.33749 -1.11998,0.0386 -0.3556,1.92733 -1.76467,4.41921 -2.4989,4.41921 -0.36854,0 -0.77758,0.15298 -0.90896,0.33994 -0.16282,0.23172 -0.40733,0.21701 -0.76791,-0.0463 -0.29096,-0.21238 -0.60108,-0.32278 -0.68915,-0.24532 -0.088,0.0775 -0.40156,1.37482 -0.69662,2.88302 -0.60877,3.1117 -0.92767,6.69209 -1.52923,17.16933 -0.23603,4.11078 -0.50704,5.8357 -0.91689,5.8357 -0.47842,0 -0.68185,-1.41704 -0.90763,-6.32201 -0.11491,-2.4964 -0.28845,-5.56014 -0.38566,-6.80835 -0.0972,-1.24818 -0.2623,-3.58247 -0.36688,-5.18729 -0.10456,-1.60481 -0.38107,-4.30382 -0.61445,-5.9978 -0.41945,-3.04471 -0.43006,-3.06763 -0.92834,-2.00278 -0.27724,0.59245 -0.70601,1.01884 -0.95285,0.94755 -0.24686,-0.0712 -0.73918,-1.43138 -1.09407,-3.0224 -0.77307,-3.46585 -1.32806,-4.02563 -2.93605,-2.96136 -2.21531,1.46624 -2.79043,2.10149 -3.02955,3.34628 -0.54401,2.83202 -1.73056,2.7543 -2.38156,-0.15601 l -0.43855,-1.96051 -1.35177,0.66776 -1.35176,0.66776 -0.66005,-0.71692 c -0.36303,-0.39429 -0.66534,-0.95606 -0.67179,-1.24836 -0.0276,-1.2506 -1.04255,0.72739 -1.44357,2.81326 -0.52052,2.70745 -1.44175,5.24675 -1.90345,5.24675 -0.3877,0 -0.46466,-0.15925 -1.09651,-2.26944 -0.24027,-0.8024 -0.5111,-1.27656 -0.60185,-1.05367 -0.2384,0.58559 -1.11396,0.4977 -1.52826,-0.15343 -0.27891,-0.4383 -0.4595,-0.11575 -0.83825,1.49703 -0.51621,2.19806 -1.13896,2.75636 -1.98215,1.77702 -0.48963,-0.56869 -0.52426,-0.57065 -0.53523,-0.0305 -0.0168,0.82542 -1.06076,1.07365 -1.63097,0.38781 -0.44724,-0.53794 -0.49192,-0.52794 -0.69516,0.15559 -0.29968,1.00786 -1.09997,0.68058 -1.6114,-0.65898 -0.40896,-1.07115 -0.43101,-1.08174 -0.62397,-0.29985 -0.11,0.44578 -0.38998,1.56922 -0.62215,2.49653 -0.58539,2.33814 -1.26366,2.76578 -1.98348,1.25059 -0.30559,-0.64326 -0.66156,-1.71305 -0.79106,-2.3773 -0.12949,-0.66425 -0.70641,-1.80241 -1.28205,-2.52924 -0.57563,-0.72686 -1.16047,-1.72054 -1.29963,-2.2082 l -0.25304,-0.88667 -0.63286,0.91528 c -0.34808,0.5034 -0.92081,1.67774 -1.27274,2.60964 -0.71418,1.89113 -1.11328,2.25702 -1.86411,1.70896 -0.40305,-0.2942 -0.60418,-0.21444 -0.95161,0.37736 -0.2423,0.4127 -0.89141,1.12249 -1.44246,1.57731 -0.71877,0.59321 -1.18782,1.50948 -1.65967,3.24206 -0.76319,2.80233 -1.14058,3.31339 -1.83563,2.48583 -0.4512,-0.53723 -0.5016,-0.5202 -0.71944,0.24316 -0.53738,1.88309 -2.06328,0.39655 -2.06328,-2.01003 0,-2.0511 -0.41575,-0.88784 -0.71512,2.00093 -0.15927,1.53687 -0.38425,2.87756 -0.49995,2.97932 -0.5695,0.50088 -0.93042,-0.45265 -1.14919,-3.03611 -0.13235,-1.56289 -0.34772,-3.42519 -0.47862,-4.13844 l -0.23798,-1.29683 -0.58034,2.24278 c -0.31918,1.23353 -0.7895,2.30411 -1.04515,2.37905 -0.66726,0.19562 -1.37414,-1.54102 -2.14519,-5.27023 l -0.67035,-3.24206 -0.40031,1.59821 c -0.22018,0.87901 -0.58238,1.65157 -0.8049,1.7168 -0.45758,0.13415 -1.20648,-1.52341 -1.26327,-2.79602 -0.0332,-0.74564 -0.0808,-0.71191 -0.4106,0.29151 -1.83582,5.5853 -2.71723,7.78096 -3.12352,7.78096 -0.58107,0 -0.71686,-0.55425 -1.23102,-5.02519 -0.57591,-5.00785 -0.80072,-5.34828 -1.32142,-2.00115 -0.24488,1.57407 -0.53193,2.93817 -0.63788,3.03136 -0.40661,0.35762 -0.97942,-0.29634 -0.99014,-1.13041 -0.008,-0.65979 -0.0906,-0.75332 -0.33687,-0.38373 -0.17913,0.26877 -0.50973,2.5301 -0.73467,5.02518 -0.93154,10.33264 -1.14398,11.83115 -1.67734,11.83115 -0.47761,0 -0.70694,-1.10785 -1.14095,-5.5115 -0.13181,-1.33735 -0.55208,-3.04359 -0.93395,-3.79165 -0.38185,-0.74805 -0.69428,-1.61125 -0.69428,-1.91821 0,-1.19478 -0.35646,-0.1493 -0.7355,2.15721 -0.59835,3.6411 -0.68528,3.87686 -1.42956,3.87686 -0.58899,0 -0.72778,0.44584 -1.07279,3.4461 -0.4164,3.62116 -0.90771,4.71284 -1.50139,3.33612 -0.32569,-0.75523 -0.34674,-0.7422 -0.56601,0.3503 -0.12526,0.62411 -0.47635,3.54196 -0.7802,6.48413 -0.30385,2.94217 -0.71721,6.07886 -0.91855,6.97041 -0.20136,0.89157 -0.49628,2.27755 -0.65537,3.07996 -0.1591,0.80242 -0.44992,1.42738 -0.64624,1.38884 -0.42591,-0.0837 -0.7038,-2.23359 -1.26797,-9.80996 -0.23203,-3.11595 -0.49118,-5.72634 -0.57591,-5.80084 -0.0848,-0.0746 -0.3976,0.0423 -0.69526,0.25956 -0.43887,0.32034 -0.63003,0.26996 -1.0109,-0.26643 -0.32552,-0.45844 -0.7168,-0.60693 -1.27472,-0.48377 -0.67572,0.14917 -0.84738,0.004 -1.06875,-0.90315 -0.37792,-1.54878 -0.57497,-1.71846 -1.04834,-0.90276 -0.60521,1.04286 -1.03022,0.94855 -1.53325,-0.34019 l -0.44291,-1.13471 -0.48219,1.391 c -0.32051,0.92456 -0.66655,1.35942 -1.032,1.29682 -0.59258,-0.10148 -2.22655,-3.78698 -2.26968,-5.11937 -0.0222,-0.68413 -0.0823,-0.72606 -0.38553,-0.26901 -0.19759,0.29784 -0.57657,1.38304 -0.84216,2.41156 -0.52554,2.03519 -1.16976,2.55863 -1.68584,1.36981 l -0.32845,-0.75662 -0.21508,0.81052 c -0.11828,0.44578 -0.42644,1.6114 -0.68478,2.59026 -0.67232,2.54734 -1.53644,2.58651 -2.32331,0.10535 -1.30228,-4.10657 -1.29638,-4.09556 -1.84351,-3.44403 -0.67294,0.80137 -1.0666,0.33274 -1.61509,-1.92268 -0.24886,-1.02336 -0.70765,-1.98624 -1.01953,-2.13975 -0.58776,-0.2893 -1.59359,-3.16342 -1.59359,-4.55364 0,-1.26972 -0.44983,-0.52243 -0.77519,1.28781 -0.16437,0.91452 -0.53945,1.82935 -0.83351,2.03295 -0.29406,0.2036 -0.73091,1.4279 -0.97076,2.72068 -0.27111,1.46123 -0.61062,2.35048 -0.89737,2.35048 -0.48017,0 -1.4239,-2.55607 -1.97504,-5.34939 l -0.31984,-1.62103 -0.28705,1.94524 c -0.52335,3.54643 -0.75806,4.22253 -1.43006,4.11941 -0.42675,-0.0654 -0.63028,0.13721 -0.65112,0.6484 -0.0328,0.80401 -0.11504,1.37547 -0.74744,5.19166 -0.39514,2.38443 -1.10059,3.89634 -1.60925,3.44898 -0.12955,-0.11396 -0.53668,-2.49021 -0.90472,-5.28057 -0.36803,-2.79036 -0.73177,-5.11181 -0.80829,-5.15878 -0.0765,-0.0469 -0.56403,-0.31839 -1.08338,-0.60315 -0.57437,-0.31493 -1.1348,-1.07025 -1.43066,-1.92816 -0.46097,-1.33671 -0.50662,-1.37123 -0.87336,-0.66052 -0.28642,0.55503 -0.59567,0.70382 -1.1901,0.57259 -0.70709,-0.15607 -0.86492,0.0256 -1.31992,1.51956 -0.39359,1.29229 -0.6842,1.69717 -1.21896,1.69823 -0.52665,8e-4 -0.802,0.36569 -1.10156,1.45893 -0.62461,2.27937 -1.40448,1.92435 -2.01829,-0.91879 -0.55247,-2.55899 -0.95784,-2.57553 -1.35299,-0.0552 -0.53043,3.38297 -1.32586,4.79872 -1.86711,3.32311 -0.11446,-0.31205 -0.29919,-0.7862 -0.41051,-1.05367 -0.11131,-0.26746 -0.50239,1.03149 -0.86904,2.88656 -0.87338,4.41879 -1.40269,4.86498 -2.36585,1.99431 l -0.37475,-1.11694 -1.24475,2.2238 c -1.09408,1.95461 -1.30053,2.15673 -1.70545,1.66969 -0.25338,-0.30478 -0.58156,-1.24055 -0.72927,-2.0795 -0.24182,-1.37345 -0.30641,-1.45271 -0.64861,-0.79588 -0.20902,0.40119 -0.51676,0.72947 -0.68384,0.72947 -0.63402,0 -1.37468,-1.53656 -1.72662,-3.58198 -0.20091,-1.16769 -0.64607,-2.69955 -0.98927,-3.40417 -0.60833,-1.24898 -0.63258,-1.26154 -0.96708,-0.50072 -0.18871,0.42922 -0.50986,1.81455 -0.71367,3.07851 -0.4108,2.54751 -0.76329,3.02318 -2.35065,3.17213 -0.99034,0.0929 -1.12144,-0.0177 -1.55488,-1.31175 -0.43828,-1.30856 -1.18863,-2.46318 -1.45084,-2.23256 -0.0614,0.054 -0.28621,1.11528 -0.49955,2.35832 -0.69829,4.0691 -0.78613,4.36745 -1.28596,4.36745 -0.31091,0 -0.58198,0.57151 -0.73041,1.53997 -0.55045,3.59143 -0.66178,3.97152 -1.16322,3.97152 -0.59822,0 -0.78006,-0.62905 -1.0778,-3.72836 -0.1199,-1.2482 -0.51513,-3.43659 -0.87827,-4.86309 -0.71194,-2.79661 -0.93018,-2.68913 -1.31671,0.64842 -0.51951,4.48581 -0.49349,4.42779 -1.89781,4.2315 -0.880307,-0.12305 -1.254865,-0.0509 -1.254865,0.24155 0,0.80401 -1.130785,8.176 -1.32793,8.65728 -0.399117,0.97433 -1.175866,-0.63335 -1.445059,-2.99094 -0.281593,-2.46606 -0.652935,-2.41277 -1.074247,0.15414 -0.249559,1.52053 -0.753664,1.90263 -1.566733,1.18751 -0.577807,-0.50817 -0.737024,-0.13092 -1.386822,3.28589 -0.837393,4.40314 -0.904634,4.6047 -1.47234,4.4131 -0.511374,-0.1726 -0.63632,0.19758 -1.14077,3.37968 -0.263747,1.66377 -0.723059,2.51227 -1.154524,2.13278 -0.157932,-0.1389 -0.718423,-2.54191 -1.245523,-5.34 l -0.958367,-5.08744 -0.286284,1.94524 c -0.157456,1.06987 -0.439858,2.19831 -0.62756,2.50761 -0.1877,0.30932 -0.551621,1.47646 -0.80871,2.59365 -0.257089,1.11719 -0.620533,2.03126 -0.807641,2.03126 -0.187101,0 -0.540112,-0.58357 -0.78445,-1.29682 -0.38996,-1.13833 -0.447721,-1.18662 -0.472583,-0.39508 -0.01555,0.49595 -0.258977,0.97958 -0.540884,1.07473 -0.618539,0.20875 -0.871323,2.22507 -1.186091,9.46058 -0.372736,8.56812 -0.657959,11.5181 -1.126877,11.65445 -0.58149,0.16911 -0.766405,-0.53703 -1.037872,-3.96336 -0.288395,-3.63998 -1.287603,-9.29946 -1.714332,-9.70996 -0.190254,-0.18301 -0.320178,-0.0185 -0.320178,0.40526 0,0.40189 -0.229799,0.71324 -0.526407,0.71324 -0.364828,0 -0.606524,-0.57219 -0.787443,-1.86417 -0.48141,-3.43797 -0.05917,-3.55274 -7.363829,2.00184 -3.641012,2.76868 -6.744431,5.0375 -6.896487,5.0418 -0.152055,0.004 -0.276464,-0.3569 -0.276464,-0.80268 0,-0.57472 -0.199932,-0.81052 -0.687218,-0.81052 -0.451212,0 -0.874908,-0.41752 -1.233745,-1.21577 l -0.546527,-1.21577 -0.634589,1.94523 c -0.907968,2.78324 -0.895195,2.75576 -1.280493,2.75576 -0.413392,0 -0.658254,-0.98247 -0.98984,-3.97153 -0.13352,-1.20361 -0.37303,-2.18839 -0.532245,-2.18839 -0.159215,0 -0.40503,0.87562 -0.546257,1.94583 -0.273257,2.07072 -0.492985,2.33338 -2.079756,2.48617 -0.757202,0.073 -1.068815,-0.0734 -1.254983,-0.58932 -0.185618,-0.51436 -0.322878,-0.57926 -0.54789,-0.25905 -0.230331,0.32778 -0.42037,0.33955 -0.816296,0.0506 -0.37058,-0.2705 -0.628674,-0.27766 -0.915493,-0.0254 -0.559111,0.49174 -1.101351,-0.49655 -1.415606,-2.5801 -0.307037,-2.03568 -0.740862,-2.15493 -1.088629,-0.29923 -0.142022,0.75783 -0.640619,2.18391 -1.107998,3.16905 -0.900656,1.89843 -2.195667,8.67285 -2.53947,13.2844 -0.198468,2.66209 -0.298309,4.49574 -0.794381,14.58927 -0.208585,4.24399 -0.50282,5.63943 -1.081751,5.13024 -0.110008,-0.0967 -0.357476,-2.64015 -0.549928,-5.65198 -0.444275,-6.95279 -0.729598,-10.27876 -0.894189,-10.42354 -0.137521,-0.12096 -0.396561,2.83349 -1.130231,12.8905 -0.323581,4.43558 -0.588442,5.88001 -1.053385,5.74464 -0.427893,-0.12458 -0.525662,-0.90957 -1.341298,-10.76982 -0.532559,-6.43807 -0.801356,-9.04451 -0.947908,-9.19155 -0.06238,-0.0625 -0.293119,0.47323 -0.512772,1.19067 -0.219652,0.71745 -0.577442,1.35665 -0.795085,1.42046 -0.217644,0.0638 -0.713388,2.21655 -1.101655,4.78386 -0.691607,4.57311 -1.206034,5.84913 -2.35805,5.84913 -0.240145,0 -0.630476,0.37419 -0.867398,0.83153 -0.324238,0.62589 -0.612361,0.78084 -1.16503,0.62657 -0.403839,-0.11275 -0.735505,-0.0858 -0.737039,0.0599 -0.003,0.26863 -0.566603,3.60458 -0.935145,5.53334 -0.21631,1.13205 -1.090362,1.43021 -1.425627,0.48631 -0.25074,-0.70589 -1.537563,-7.67165 -1.901586,-10.29352 l -0.27008,-1.94524 -0.422507,1.45893 c -0.715166,2.46948 -1.405103,1.90301 -2.128526,-1.74762 -0.349485,-1.7636 -0.702647,-3.26567 -0.784816,-3.33793 -0.08216,-0.0723 -0.265082,0.71415 -0.406481,1.7476 -0.382965,2.79903 -0.978252,4.66872 -1.54764,4.86089 -0.278511,0.0939 -0.689646,0.81103 -0.913641,1.59342 -0.223995,0.78239 -0.576632,1.42252 -0.78364,1.42252 -0.207005,0 -0.588446,0.25508 -0.847648,0.56684 -0.638422,0.76791 -0.835498,0.50835 -1.303084,-1.71631 -0.22004,-1.04689 -0.634098,-2.19729 -0.920129,-2.55646 -0.286029,-0.35916 -0.520051,-1.00316 -0.520051,-1.4311 0,-0.67157 -0.07952,-0.72003 -0.581025,-0.35396 -0.481523,0.35147 -0.638371,0.34439 -0.915905,-0.0414 -0.184184,-0.25601 -0.339683,-0.75725 -0.345558,-1.11388 -0.0058,-0.35663 -0.12665,-1.01313 -0.2683992,-1.45892 -0.2251819,-0.70819 -0.3084899,-0.60585 -0.6598388,0.81051 -0.5292492,2.13353 -1.4945821,2.21773 -2.6353398,0.22989 -0.4390815,-0.7651 -0.881015,-1.27345 -0.9820723,-1.12964 -0.1497922,0.21319 -0.9842461,4.87605 -0.9842461,5.4999 0,0.0971 -0.3210457,0.10266 -0.7134331,0.0124 -0.4124739,-0.0948 -0.7963429,0.0259 -0.9099802,0.28639 -0.1080977,0.24778 -0.4133923,0.45049 -0.6784302,0.45049 -0.2650325,0 -0.8093471,0.61392 -1.2095789,1.36428 -0.89704988,1.68177 -1.51273585,1.8857 -2.07824219,0.68835 -0.38928371,-0.82422 -0.49890361,-0.47119 -1.07403451,3.45886 -0.3522753,2.40725 -0.6558438,4.41326 -0.6745951,4.45784 -0.082111,0.19523 -0.7453232,0.0561 -0.9204136,-0.19303 z"
       id="path6"
       clip-path="url(#clipPath8)" /></g></svg>
