<?xml version="1.0" encoding="UTF-8" standalone="no"?>
<!-- Created with Inkscape (http://www.inkscape.org/) -->

<svg
   xmlns:dc="http://purl.org/dc/elements/1.1/"
   xmlns:cc="http://creativecommons.org/ns#"
   xmlns:rdf="http://www.w3.org/1999/02/22-rdf-syntax-ns#"
   xmlns:svg="http://www.w3.org/2000/svg"
   xmlns="http://www.w3.org/2000/svg"
   xmlns:sodipodi="http://sodipodi.sourceforge.net/DTD/sodipodi-0.dtd"
   xmlns:inkscape="http://www.inkscape.org/namespaces/inkscape"
   width="256"
   height="160"
   viewBox="0 0 67.733333 42.333336"
   version="1.1"
   id="svg1977"
   inkscape:version="0.92.4 5da689c313, 2019-01-14"
   sodipodi:docname="wolkenbruch_256x160.svg">
  <defs
     id="defs1971" />
  <sodipodi:namedview
     id="base"
     pagecolor="#ffffff"
     bordercolor="#666666"
     borderopacity="1.0"
     inkscape:pageopacity="0.0"
     inkscape:pageshadow="2"
     inkscape:zoom="1.5177939"
     inkscape:cx="248.42382"
     inkscape:cy="135.00819"
     inkscape:document-units="px"
     inkscape:current-layer="layer1"
     showgrid="false"
     fit-margin-top="0"
     fit-margin-left="0"
     fit-margin-right="0"
     fit-margin-bottom="0"
     units="px" />
  <metadata
     id="metadata1974">
    <rdf:RDF>
      <cc:Work
         rdf:about="">
        <dc:format>image/svg+xml</dc:format>
        <dc:type
           rdf:resource="http://purl.org/dc/dcmitype/StillImage" />
        <dc:title></dc:title>
      </cc:Work>
    </rdf:RDF>
  </metadata>
  <g
     inkscape:label="Layer 1"
     inkscape:groupmode="layer"
     id="layer1"
     transform="translate(-57.993207,-47.567997)">
    <path
       style="fill:#000812;fill-opacity:1;stroke:none;stroke-width:0.49999994"
       d="m 85.248794,47.567997 c -8.267089,0.601587 -15.028408,6.027688 -16.70401,13.170494 -6.328838,2.299344 -10.551577,7.81593 -10.551577,14.023211 0,8.364687 7.577378,15.139628 16.933057,15.139628 h 22.192369 l -3.23029,-17.868214 -12.011551,2.224504 z m 5.06157,0.247045 3.577979,15.321161 14.575577,-1.251317 -5.26976,28.016444 h 7.29218 c 8.41378,0 15.2402,-6.10318 15.2402,-13.625721 0,-5.847714 -4.1487,-10.957129 -10.1918,-12.859051 -0.42332,-5.488145 -5.53501,-9.850111 -11.8215,-9.850111 -0.80436,0 -1.5981,0.07569 -2.37068,0.21762 -2.68835,-3.013916 -6.566742,-5.201072 -11.032196,-5.969025 z"
       id="path5781"
       inkscape:connector-curvature="0" />
  </g>
</svg>
