<?xml version="1.0" encoding="UTF-8" standalone="no"?>
<!-- Created with Inkscape (http://www.inkscape.org/) -->

<svg
   xmlns:dc="http://purl.org/dc/elements/1.1/"
   xmlns:cc="http://creativecommons.org/ns#"
   xmlns:rdf="http://www.w3.org/1999/02/22-rdf-syntax-ns#"
   xmlns:svg="http://www.w3.org/2000/svg"
   xmlns="http://www.w3.org/2000/svg"
   xmlns:sodipodi="http://sodipodi.sourceforge.net/DTD/sodipodi-0.dtd"
   xmlns:inkscape="http://www.inkscape.org/namespaces/inkscape"
   width="256"
   height="256"
   viewBox="0 0 67.733333 67.733337"
   version="1.1"
   id="svg1977"
   inkscape:version="0.92.4 5da689c313, 2019-01-14"
   sodipodi:docname="wolkenbruch.svg">
  <defs
     id="defs1971" />
  <sodipodi:namedview
     id="base"
     pagecolor="#ffffff"
     bordercolor="#666666"
     borderopacity="1.0"
     inkscape:pageopacity="0.0"
     inkscape:pageshadow="2"
     inkscape:zoom="1.5177939"
     inkscape:cx="255.99999"
     inkscape:cy="193.04338"
     inkscape:document-units="px"
     inkscape:current-layer="layer1"
     showgrid="false"
     fit-margin-top="0"
     fit-margin-left="0"
     fit-margin-right="0"
     fit-margin-bottom="0"
     units="px" />
  <metadata
     id="metadata1974">
    <rdf:RDF>
      <cc:Work
         rdf:about="">
        <dc:format>image/svg+xml</dc:format>
        <dc:type
           rdf:resource="http://purl.org/dc/dcmitype/StillImage" />
        <dc:title></dc:title>
      </cc:Work>
    </rdf:RDF>
  </metadata>
  <g
     inkscape:label="Layer 1"
     inkscape:groupmode="layer"
     id="layer1"
     transform="translate(-55.988679,-37.523138)">
    <g
       transform="matrix(1.7608597,0,0,1.7619525,-59.592532,8.8077429)"
       id="g5795"
       style="fill:#000812;fill-opacity:1;stroke:none;stroke-width:0.56772828">
      <path
         style="fill:#000812;fill-opacity:1;stroke:none;stroke-width:0.28386414"
         d="m 97.521404,32.032804 c -0.226171,-2.899411 -2.957341,-5.203941 -6.316158,-5.203941 -0.429755,0 -0.853848,0.03999 -1.266634,0.114972 -1.803807,-1.999593 -4.608483,-3.314328 -7.780697,-3.314328 -4.783775,0 -8.792875,2.984396 -9.742846,6.988584 -3.38144,1.214753 -5.637619,4.129161 -5.637619,7.408495 0,4.419101 4.04868,7.998377 9.047333,7.998377 h 18.999391 c 4.495399,0 8.142596,-3.224348 8.142596,-7.198539 0,-3.089373 -2.21659,-5.788826 -5.445366,-6.79362 z"
         id="path5781"
         inkscape:connector-curvature="0" />
    </g>
    <path
       style="fill:#ffffff;stroke:#ffffff;stroke-width:0.26458335px;stroke-linecap:butt;stroke-linejoin:miter;stroke-opacity:1"
       d="m 80.46315,75.33947 11.30039,-2.070463 5.840649,31.962773 7.872181,-41.409261 -13.71283,1.164635 -6.475503,-27.433635 z"
       id="path2530"
       inkscape:connector-curvature="0"
       sodipodi:nodetypes="ccccccc" />
  </g>
</svg>
