<?xml version="1.0" encoding="UTF-8" standalone="no"?>
<!-- Created with Inkscape (http://www.inkscape.org/) -->

<svg
   xmlns:dc="http://purl.org/dc/elements/1.1/"
   xmlns:cc="http://creativecommons.org/ns#"
   xmlns:rdf="http://www.w3.org/1999/02/22-rdf-syntax-ns#"
   xmlns:svg="http://www.w3.org/2000/svg"
   xmlns="http://www.w3.org/2000/svg"
   xmlns:sodipodi="http://sodipodi.sourceforge.net/DTD/sodipodi-0.dtd"
   xmlns:inkscape="http://www.inkscape.org/namespaces/inkscape"
   width="256"
   height="256"
   viewBox="0 0 67.733333 67.733337"
   version="1.1"
   id="svg1977"
   inkscape:version="0.92.4 5da689c313, 2019-01-14"
   sodipodi:docname="wolkenbruch.svg">
  <defs
     id="defs1971" />
  <sodipodi:namedview
     id="base"
     pagecolor="#ffffff"
     bordercolor="#666666"
     borderopacity="1.0"
     inkscape:pageopacity="0.0"
     inkscape:pageshadow="2"
     inkscape:zoom="1.5177939"
     inkscape:cx="255.99999"
     inkscape:cy="193.04338"
     inkscape:document-units="px"
     inkscape:current-layer="layer1"
     showgrid="false"
     fit-margin-top="0"
     fit-margin-left="0"
     fit-margin-right="0"
     fit-margin-bottom="0"
     units="px" />
  <metadata
     id="metadata1974">
    <rdf:RDF>
      <cc:Work
         rdf:about="">
        <dc:format>image/svg+xml</dc:format>
        <dc:type
           rdf:resource="http://purl.org/dc/dcmitype/StillImage" />
        <dc:title></dc:title>
      </cc:Work>
    </rdf:RDF>
  </metadata>
  <g
     inkscape:label="Layer 1"
     inkscape:groupmode="layer"
     id="layer1"
     transform="translate(-55.988679,-37.523138)">
    <path
       inkscape:connector-curvature="0"
       id="path5781"
       d="m 112.12898,65.248022 c -0.39826,-5.108624 -5.20746,-9.169097 -11.12187,-9.169097 -0.75674,0 -1.503506,0.07046 -2.230365,0.202575 -3.176251,-3.523188 -8.114892,-5.839688 -13.700715,-5.839688 -8.423557,0 -15.48302,5.258364 -17.155785,12.313553 -5.954242,2.140337 -9.927056,7.275385 -9.927056,13.053416 0,7.786246 7.129157,14.092761 15.931084,14.092761 h 33.455257 c 7.91577,0 14.33797,-5.681148 14.33797,-12.683484 0,-5.443329 -3.9031,-10.199637 -9.58852,-11.970036 z"
       style="fill:#000812;fill-opacity:1;stroke:none;stroke-width:0.5" />
    <path
       style="fill:#ffffff;stroke:#ffffff;stroke-width:0.26458335px;stroke-linecap:butt;stroke-linejoin:miter;stroke-opacity:1"
       d="m 80.46315,75.33947 11.30039,-2.070463 5.840649,31.962773 7.872181,-41.409261 -13.71283,1.164635 -6.475503,-27.433635 z"
       id="path2530"
       inkscape:connector-curvature="0"
       sodipodi:nodetypes="ccccccc" />
  </g>
</svg>
