<svg xmlns:xlink="http://www.w3.org/1999/xlink" version="1.1" class="highcharts-root" style="font-family:&quot;Akko W01 Regular&quot;, &quot;Calibri Light&quot;, sans-serif;font-size:12px;color:#000;fill:#000;" xmlns="http://www.w3.org/2000/svg" width="1134" height="684" viewBox="0 0 1134 684"><desc>Created with Highcharts 7.0.3</desc><defs><clipPath id="highcharts-phk08mg-249"><rect x="0" y="0" width="1087" height="302" fill="none"></rect></clipPath></defs><rect fill="#ffffff" class="highcharts-background" x="0" y="0" width="1134" height="684" rx="0" ry="0"></rect><path fill="#efefef" d="M 37 457 v 126 a 6 6 0 0 0 6 6 h 1075 a 6 6 0 0 0 6 -6 v -126 z" data-z-index="-1"></path><rect fill="none" class="highcharts-plot-background" x="37" y="155" width="1087" height="302"></rect><text x="11" y="122" style="font-size:22.5px;font-family:&quot;Akko Pro Light&quot;, &quot;Calibri Light&quot;;"><tspan>Gemiddelde afmeting [mm]</tspan></text><g class="highcharts-pane-group" data-z-index="0"></g><g class="highcharts-plot-lines-0" data-z-index="0"></g><rect fill="none" class="highcharts-plot-border" data-z-index="1" x="37" y="155" width="1087" height="302"></rect><g class="highcharts-grid highcharts-xaxis-grid " data-z-index="1"><path fill="none" data-z-index="1" class="highcharts-grid-line" d="M 398.5 155 L 398.5 457" opacity="1"></path><path fill="none" data-z-index="1" class="highcharts-grid-line" d="M 761.5 155 L 761.5 457" opacity="1"></path><path fill="none" data-z-index="1" class="highcharts-grid-line" d="M 1123.5 155 L 1123.5 457" opacity="1"></path><path fill="none" data-z-index="1" class="highcharts-grid-line" d="M 36.5 155 L 36.5 457" opacity="1"></path></g><g class="highcharts-grid highcharts-yaxis-grid " data-z-index="1"><path fill="none" stroke="#666666" stroke-width="0.75" data-z-index="1" class="highcharts-grid-line" d="M 37 457.375 L 1124 457.375" opacity="1"></path><path fill="none" stroke="#666666" stroke-width="0.75" data-z-index="1" class="highcharts-grid-line" d="M 37 414.375 L 1124 414.375" opacity="1"></path><path fill="none" stroke="#666666" stroke-width="0.75" data-z-index="1" class="highcharts-grid-line" d="M 37 371.375 L 1124 371.375" opacity="1"></path><path fill="none" stroke="#666666" stroke-width="0.75" data-z-index="1" class="highcharts-grid-line" d="M 37 328.375 L 1124 328.375" opacity="1"></path><path fill="none" stroke="#666666" stroke-width="0.75" data-z-index="1" class="highcharts-grid-line" d="M 37 284.375 L 1124 284.375" opacity="1"></path><path fill="none" stroke="#666666" stroke-width="0.75" data-z-index="1" class="highcharts-grid-line" d="M 37 241.375 L 1124 241.375" opacity="1"></path><path fill="none" stroke="#666666" stroke-width="0.75" data-z-index="1" class="highcharts-grid-line" d="M 37 198.375 L 1124 198.375" opacity="1"></path><path fill="none" stroke="#666666" stroke-width="0.75" data-z-index="1" class="highcharts-grid-line" d="M 37 154.625 L 1124 154.625" opacity="1"></path></g><g class="highcharts-logo" data-z-index="1" transform="translate(48,535) scale(0.2692307692307692)"><path fill="#929292" d="M 41.3 34.1 V 42 H 23.8 h -5.5 v 5.5 v 7.9 v 5.5 h 5.5 h 17.5 v 7.9 H 10.4 V 34.1 H 41.3 M 46.8 28.6 H 9.9 c -2.8 0 -5 2.2 -5 5 v 40.6 h 41.9 V 55.3 h -23 v -7.9 h 23 V 28.6 L 46.9 28.6 z"></path><path fill="#929292" d="M 67.3 11.4 v 17.2 v 5.5 h 5.5 h 21.3 v 34.6 H 59.4 V 11.4 H 67.3 M 67.2 60.8 h 5.5 h 7.9 h 5.5 v -5.5 v -7.9 v -5.5 h -5.5 h -7.9 h -5.5 v 5.5 v 7.9 V 60.8 M 67.8 5.9 H 53.9 v 68.3 h 45.7 V 33.6 c 0 -2.8 -2.2 -5 -5 -5 H 72.8 V 11.2 C 72.8 8.4 70.5 5.9 67.8 5.9 L 67.8 5.9 z M 72.7 55.3 v -7.9 h 7.9 v 7.9 H 72.7 L 72.7 55.3 z"></path><path fill="#929292" d="M 94 86.8 v 8 H 23.8 h -5.5 v 5.5 v 7 v 5.5 h 5.5 H 94 v 33.9 H 10.4 v -7.9 h 70.3 h 5.5 v -5.5 v -7.1 v -5.5 h -5.5 H 10.4 V 86.8 H 94 M 99.5 81.3 H 4.9 v 44.9 h 75.8 v 7.1 H 4.9 v 13.9 c 0 2.8 2.2 5 5 5 h 84.6 c 2.8 0 5 -2.2 5 -5 v -39.9 H 23.8 v -7 h 75.7 V 81.3 L 99.5 81.3 z"></path></g><g class="highcharts-axis highcharts-xaxis " data-z-index="2"><text x="1112" data-z-index="7" text-anchor="end" transform="translate(0,0)" class="highcharts-axis-title" style="color:#000000;font-size:22.5px;font-family:&quot;Akko Pro Light&quot;, &quot;Calibri Light&quot;;fill:#000000;" y="519"><tspan>Bloemsoort</tspan></text><path fill="none" class="highcharts-axis-line" stroke="#666666" stroke-width="1" data-z-index="7" d="M 37 457.5 L 1124 457.5"></path></g><g class="highcharts-axis highcharts-yaxis " data-z-index="2"><path fill="none" class="highcharts-axis-line" data-z-index="7" d="M 37 155 L 37 457"></path></g><g class="highcharts-series-group" data-z-index="3"><g data-z-index="0.1" class="highcharts-series highcharts-series-0 highcharts-column-series highcharts-color-0 " transform="translate(37,155) scale(1 1)" clip-path="url(#highcharts-phk08mg-249)"><rect x="36.5" y="86.5" width="60" height="216" fill="#00a1cd" stroke="#FFFFFF" stroke-width="0.5" class="highcharts-point highcharts-color-0"></rect><rect x="398.5" y="47.5" width="60" height="255" fill="#00a1cd" stroke="#FFFFFF" stroke-width="0.5" class="highcharts-point highcharts-color-0"></rect><rect x="761.5" y="17.5" width="60" height="285" fill="#00a1cd" stroke="#FFFFFF" stroke-width="0.5" class="highcharts-point highcharts-color-0"></rect></g><g data-z-index="0.1" class="highcharts-markers highcharts-series-0 highcharts-column-series highcharts-color-0 " transform="translate(37,155) scale(1 1)" clip-path="none"></g><g data-z-index="0.1" class="highcharts-series highcharts-series-1 highcharts-column-series highcharts-color-1 " transform="translate(37,155) scale(1 1)" clip-path="url(#highcharts-phk08mg-249)"><rect x="112.5" y="155.5" width="60" height="147" fill="#0058b8" stroke="#FFFFFF" stroke-width="0.5" class="highcharts-point highcharts-color-1"></rect><rect x="474.5" y="181.5" width="60" height="121" fill="#0058b8" stroke="#FFFFFF" stroke-width="0.5" class="highcharts-point highcharts-color-1"></rect><rect x="837.5" y="173.5" width="60" height="129" fill="#0058b8" stroke="#FFFFFF" stroke-width="0.5" class="highcharts-point highcharts-color-1"></rect></g><g data-z-index="0.1" class="highcharts-markers highcharts-series-1 highcharts-column-series highcharts-color-1 " transform="translate(37,155) scale(1 1)" clip-path="none"></g><g data-z-index="0.1" class="highcharts-series highcharts-series-2 highcharts-column-series highcharts-color-2 " transform="translate(37,155) scale(1 1)" clip-path="url(#highcharts-phk08mg-249)"><rect x="188.5" y="237.5" width="60" height="65" fill="#afcb05" stroke="#FFFFFF" stroke-width="0.5" class="highcharts-point highcharts-color-2"></rect><rect x="551.5" y="116.5" width="60" height="186" fill="#afcb05" stroke="#FFFFFF" stroke-width="0.5" class="highcharts-point highcharts-color-2"></rect><rect x="913.5" y="60.5" width="60" height="242" fill="#afcb05" stroke="#FFFFFF" stroke-width="0.5" class="highcharts-point highcharts-color-2"></rect></g><g data-z-index="0.1" class="highcharts-markers highcharts-series-2 highcharts-column-series highcharts-color-2 " transform="translate(37,155) scale(1 1)" clip-path="none"></g><g data-z-index="0.1" class="highcharts-series highcharts-series-3 highcharts-column-series highcharts-color-3 " transform="translate(37,155) scale(1 1)" clip-path="url(#highcharts-phk08mg-249)"><rect x="264.5" y="293.5" width="60" height="9" fill="#53a31d" stroke="#FFFFFF" stroke-width="0.5" class="highcharts-point highcharts-color-3"></rect><rect x="627.5" y="246.5" width="60" height="56" fill="#53a31d" stroke="#FFFFFF" stroke-width="0.5" class="highcharts-point highcharts-color-3"></rect><rect x="989.5" y="216.5" width="60" height="86" fill="#53a31d" stroke="#FFFFFF" stroke-width="0.5" class="highcharts-point highcharts-color-3"></rect></g><g data-z-index="0.1" class="highcharts-markers highcharts-series-3 highcharts-column-series highcharts-color-3 " transform="translate(37,155) scale(1 1)" clip-path="none"></g><path fill="none" class="highcharts-plot-line " stroke="#666666" stroke-width="4.5" d="M 37 457.25 L 1124 457.25" data-z-index="0" visibility="visible"></path></g><text x="12" text-anchor="start" class="highcharts-title" data-z-index="4" style="color:#000;font-size:31.5px;font-family:&quot;Soho Pro Medium&quot;, &quot;Cambria Bold&quot;;fill:#000;" y="37"><tspan>2.2.1 Gemiddelde afmeting per bloemonderdeel, plaatje gemaakt</tspan><tspan dy="37" x="0">met highcharts</tspan></text><text x="10" text-anchor="start" class="highcharts-subtitle" data-z-index="4" style="color:#666666;fill:#666666;" y="99"></text><g class="highcharts-legend" data-z-index="7" transform="translate(37,613)"><rect fill="none" class="highcharts-legend-box" rx="0" ry="0" x="0" y="0" width="917" height="34" visibility="visible"></rect><g data-z-index="1"><g><g class="highcharts-legend-item highcharts-column-series highcharts-color-0 highcharts-series-0" data-z-index="1" transform="translate(0,-5)"><text x="64" style="color:#000000;cursor:pointer;font-size:22.5px;font-weight:normal;font-family:&quot;Akko Pro Light&quot;, &quot;Calibri Light&quot;;fill:#000000;" text-anchor="start" data-z-index="2" y="25"><tspan>Stempellengte</tspan></text><rect x="0" y="8" width="46" height="18" fill="#00a1cd" class="highcharts-point" data-z-index="3"></rect></g><g class="highcharts-legend-item highcharts-column-series highcharts-color-1 highcharts-series-1" data-z-index="1" transform="translate(252.09375,-5)"><text x="64" y="25" style="color:#000000;cursor:pointer;font-size:22.5px;font-weight:normal;font-family:&quot;Akko Pro Light&quot;, &quot;Calibri Light&quot;;fill:#000000;" text-anchor="start" data-z-index="2"><tspan>Stempelbreedte</tspan></text><rect x="0" y="8" width="46" height="18" fill="#0058b8" class="highcharts-point" data-z-index="3"></rect></g><g class="highcharts-legend-item highcharts-column-series highcharts-color-2 highcharts-series-2" data-z-index="1" transform="translate(517.546875,-5)"><text x="64" y="25" style="color:#000000;cursor:pointer;font-size:22.5px;font-weight:normal;font-family:&quot;Akko Pro Light&quot;, &quot;Calibri Light&quot;;fill:#000000;" text-anchor="start" data-z-index="2"><tspan>Bladlengte</tspan></text><rect x="0" y="8" width="46" height="18" fill="#afcb05" class="highcharts-point" data-z-index="3"></rect></g><g class="highcharts-legend-item highcharts-column-series highcharts-color-3 highcharts-series-3" data-z-index="1" transform="translate(733.78125,-5)"><text x="64" y="25" style="color:#000000;cursor:pointer;font-size:22.5px;font-weight:normal;font-family:&quot;Akko Pro Light&quot;, &quot;Calibri Light&quot;;fill:#000000;" text-anchor="start" data-z-index="2"><tspan>Bladbreedte</tspan></text><rect x="0" y="8" width="46" height="18" fill="#53a31d" class="highcharts-point" data-z-index="3"></rect></g></g></g></g><g class="highcharts-axis-labels highcharts-xaxis-labels " data-z-index="7"><text x="218.16666666666336" style="color:#000000;cursor:default;font-size:22.5px;font-family:&quot;Akko Pro Light&quot;, &quot;Calibri Light&quot;;fill:#000000;" text-anchor="middle" transform="translate(0,0)" y="485" opacity="1">Setosa</text><text x="580.5000000000034" style="color:#000000;cursor:default;font-size:22.5px;font-family:&quot;Akko Pro Light&quot;, &quot;Calibri Light&quot;;fill:#000000;" text-anchor="middle" transform="translate(0,0)" y="485" opacity="1">Versicolor</text><text x="942.8333333333334" style="color:#000000;cursor:default;font-size:22.5px;font-family:&quot;Akko Pro Light&quot;, &quot;Calibri Light&quot;;fill:#000000;" text-anchor="middle" transform="translate(0,0)" y="485" opacity="1">Virginica</text></g><g class="highcharts-axis-labels highcharts-yaxis-labels " data-z-index="7"><text x="22" style="color:#000000;cursor:default;font-size:22.5px;font-family:&quot;Akko Pro Light&quot;, &quot;Calibri Light&quot;;fill:#000000;" text-anchor="end" transform="translate(0,0)" y="464" opacity="1">0</text><text x="22" style="color:#000000;cursor:default;font-size:22.5px;font-family:&quot;Akko Pro Light&quot;, &quot;Calibri Light&quot;;fill:#000000;" text-anchor="end" transform="translate(0,0)" y="420" opacity="1">1</text><text x="22" style="color:#000000;cursor:default;font-size:22.5px;font-family:&quot;Akko Pro Light&quot;, &quot;Calibri Light&quot;;fill:#000000;" text-anchor="end" transform="translate(0,0)" y="377" opacity="1">2</text><text x="22" style="color:#000000;cursor:default;font-size:22.5px;font-family:&quot;Akko Pro Light&quot;, &quot;Calibri Light&quot;;fill:#000000;" text-anchor="end" transform="translate(0,0)" y="334" opacity="1">3</text><text x="22" style="color:#000000;cursor:default;font-size:22.5px;font-family:&quot;Akko Pro Light&quot;, &quot;Calibri Light&quot;;fill:#000000;" text-anchor="end" transform="translate(0,0)" y="291" opacity="1">4</text><text x="22" style="color:#000000;cursor:default;font-size:22.5px;font-family:&quot;Akko Pro Light&quot;, &quot;Calibri Light&quot;;fill:#000000;" text-anchor="end" transform="translate(0,0)" y="248" opacity="1">5</text><text x="22" style="color:#000000;cursor:default;font-size:22.5px;font-family:&quot;Akko Pro Light&quot;, &quot;Calibri Light&quot;;fill:#000000;" text-anchor="end" transform="translate(0,0)" y="205" opacity="1">6</text><text x="22" style="color:#000000;cursor:default;font-size:22.5px;font-family:&quot;Akko Pro Light&quot;, &quot;Calibri Light&quot;;fill:#000000;" text-anchor="end" transform="translate(0,0)" y="162" opacity="1">7</text></g></svg>