<?xml version="1.0" standalone="no"?>
<!DOCTYPE svg PUBLIC "-//W3C//DTD SVG 20010904//EN"
 "http://www.w3.org/TR/2001/REC-SVG-20010904/DTD/svg10.dtd">
<svg version="1.0" xmlns="http://www.w3.org/2000/svg"
 width="254.000000pt" height="164.000000pt" viewBox="0 0 254.000000 164.000000"
 preserveAspectRatio="xMidYMid meet">

<g transform="translate(0.000000,164.000000) scale(0.100000,-0.100000)"
fill="#000000" stroke="none">
<path d="M725 1584 c-265 -29 -489 -111 -555 -204 -35 -49 -38 -110 -7 -162
38 -65 106 -108 242 -155 237 -81 683 -95 1030 -33 111 20 268 60 261 67 -2 2
-28 -3 -56 -11 -155 -46 -535 -64 -765 -37 -207 25 -406 73 -519 127 -69 32
-126 83 -126 112 0 54 112 126 265 171 197 58 409 85 670 85 199 0 326 -12
459 -45 43 -11 80 -18 82 -16 7 7 -187 55 -311 77 -96 17 -171 22 -375 25
-140 2 -273 1 -295 -1z"/>
<path d="M2105 1308 c-22 -6 -49 -17 -59 -24 -16 -11 -11 -12 38 -7 74 8 171
-18 220 -59 58 -47 79 -100 79 -188 -2 -216 -179 -420 -517 -594 -49 -25 -90
-47 -93 -49 -2 -3 21 1 51 8 200 47 375 143 500 275 223 237 199 562 -47 635
-57 17 -113 18 -172 3z"/>
<path d="M2072 1242 c-37 -11 -92 -61 -126 -116 -49 -77 -84 -175 -121 -336
-41 -180 -63 -240 -124 -332 -148 -227 -429 -330 -791 -288 -124 14 -194 34
-295 85 -268 134 -430 427 -464 840 l-8 100 -2 -115 c-4 -339 119 -639 332
-811 76 -61 190 -116 307 -147 85 -22 115 -25 285 -26 221 -1 273 9 425 81 81
39 108 58 182 133 108 109 164 217 199 380 70 335 126 461 220 501 25 10 36 8
83 -15 79 -39 101 -78 101 -181 -1 -69 -4 -87 -30 -134 -37 -67 -128 -150
-205 -187 -33 -15 -57 -30 -55 -33 13 -12 175 82 223 131 64 63 86 103 103
185 25 120 -22 221 -125 269 -52 24 -73 27 -114 16z"/>
</g>
</svg>
