<?xml version="1.0" encoding="UTF-8" standalone="no"?>
<!DOCTYPE svg PUBLIC "-//W3C//DTD SVG 1.1//EN"
 "http://www.w3.org/Graphics/SVG/1.1/DTD/svg11.dtd">
<!-- Generated by graphviz version 11.0.0 (20240428.1522)
 -->
<!-- Title: G Pages: 1 -->
<svg width="122pt" height="336pt"
 viewBox="0.00 0.00 121.72 336.00" xmlns="http://www.w3.org/2000/svg" xmlns:xlink="http://www.w3.org/1999/xlink">
<g id="graph0" class="graph" transform="scale(1 1) rotate(0) translate(4 332)">
<title>G</title><style>.edge>path:hover{stroke-width:8}</style>
<polygon fill="white" stroke="none" points="-4,4 -4,-332 117.72,-332 117.72,4 -4,4"/>
<!-- coldp_py -->
<g id="node1" class="node">
<title>coldp_py</title><style>.edge>path:hover{stroke-width:8}</style>
<ellipse fill="#9f5656" stroke="black" cx="31.72" cy="-18" rx="31.72" ry="18"/>
<text text-anchor="middle" x="31.72" y="-14.5" font-family="Helvetica,sans-Serif" font-size="10.00" fill="#ffffff">coldp.py</text>
</g>
<!-- numpy -->
<g id="node2" class="node">
<title>numpy</title><style>.edge>path:hover{stroke-width:8}</style>
<polygon fill="#039503" stroke="black" points="113.72,-328 110.72,-332 89.72,-332 86.72,-328 59.72,-328 59.72,-292 113.72,-292 113.72,-328"/>
<text text-anchor="middle" x="86.72" y="-306.5" font-family="Helvetica,sans-Serif" font-size="10.00" fill="#ffffff">numpy</text>
</g>
<!-- numpy&#45;&gt;coldp_py -->
<g id="edge1" class="edge">
<title>numpy&#45;&gt;coldp_py</title><style>.edge>path:hover{stroke-width:8}</style>
<path fill="none" stroke="black" d="M86.72,-181C81.48,-158.99 62,-164.62 50.72,-145 34.23,-116.31 39.38,-105.2 31.72,-73"/>
<path fill="none" stroke="black" d="M31.72,-72C29.5,-64.15 28.82,-55.37 28.88,-47.26"/>
<polygon fill="#039503" stroke="black" points="32.36,-47.69 29.32,-37.54 25.37,-47.37 32.36,-47.69"/>
<path fill="none" stroke="black" d="M88.76,-291.55C91.19,-266.89 94.05,-220.56 86.72,-182"/>
</g>
<!-- pandas -->
<g id="node3" class="node">
<title>pandas</title><style>.edge>path:hover{stroke-width:8}</style>
<polygon fill="#030395" stroke="black" points="113.72,-145 110.72,-149 89.72,-149 86.72,-145 59.72,-145 59.72,-109 113.72,-109 113.72,-145"/>
<text text-anchor="middle" x="86.72" y="-123.5" font-family="Helvetica,sans-Serif" font-size="10.00" fill="#ffffff">pandas</text>
</g>
<!-- numpy&#45;&gt;pandas -->
<g id="edge2" class="edge">
<title>numpy&#45;&gt;pandas</title><style>.edge>path:hover{stroke-width:8}</style>
<path fill="none" stroke="black" d="M86.72,-181C84.88,-173.27 84.28,-164.73 84.3,-156.8"/>
<polygon fill="#039503" stroke="black" points="87.79,-157.05 84.65,-146.93 80.79,-156.8 87.79,-157.05"/>
</g>
<!-- pandas&#45;&gt;coldp_py -->
<g id="edge3" class="edge">
<title>pandas&#45;&gt;coldp_py</title><style>.edge>path:hover{stroke-width:8}</style>
<path fill="none" stroke="black" d="M59.46,-109.9C47.52,-100.88 35.37,-88.35 31.72,-73"/>
</g>
</g>
</svg>
